<svg width="108" height="21" viewBox="0 0 108 21" fill="none" xmlns="http://www.w3.org/2000/svg">
<path d="M8.11997 20.216C6.47731 20.216 5.04931 19.8894 3.83597 19.236C2.62264 18.564 1.67997 17.6587 1.00797 16.52C0.335974 15.3627 -2.63155e-05 14.0467 -2.63155e-05 12.572C-2.63155e-05 11.4334 0.18664 10.388 0.559974 9.43603C0.933307 8.48403 1.45597 7.6627 2.12797 6.97203C2.79997 6.2627 3.59331 5.72137 4.50797 5.34803C5.44131 4.95603 6.45864 4.76003 7.55997 4.76003C8.60531 4.76003 9.55731 4.9467 10.416 5.32003C11.2933 5.69337 12.0493 6.21603 12.684 6.88803C13.3186 7.56003 13.804 8.35337 14.14 9.26803C14.476 10.1827 14.6253 11.1814 14.588 12.264L14.56 13.468H2.71597L2.07197 10.948H10.92L10.444 11.48V10.92C10.4066 10.4534 10.2573 10.0427 9.99597 9.68803C9.75331 9.3147 9.42664 9.02537 9.01597 8.82003C8.60531 8.6147 8.13864 8.51203 7.61597 8.51203C6.88797 8.51203 6.26264 8.66137 5.73997 8.96003C5.23597 9.24003 4.85331 9.66004 4.59197 10.22C4.33064 10.7614 4.19997 11.4334 4.19997 12.236C4.19997 13.0574 4.36797 13.776 4.70397 14.392C5.05864 14.9894 5.56264 15.456 6.21597 15.792C6.88797 16.128 7.68131 16.296 8.59597 16.296C9.23064 16.296 9.79064 16.2027 10.276 16.016C10.78 15.8294 11.3213 15.512 11.9 15.064L14 18.032C13.4213 18.536 12.8053 18.9467 12.152 19.264C11.4986 19.5814 10.8266 19.8147 10.136 19.964C9.46397 20.132 8.79197 20.216 8.11997 20.216ZM29.1528 19.936L23.0768 11.144L15.2928 0.336034H21.0888L27.0248 9.01603L34.9488 19.936H29.1528ZM15.1528 19.936L22.6288 9.26803L26.4648 11.48L20.6688 19.936H15.1528ZM27.4728 10.836L23.6648 8.70803L29.1528 0.336034H34.6688L27.4728 10.836Z" fill="#3B44F6"/>
<path d="M43.771 20.216C42.6323 20.216 41.587 20.076 40.635 19.796C39.683 19.4974 38.8243 19.0587 38.059 18.48C37.2936 17.9014 36.6123 17.2014 36.015 16.38L38.395 13.692C39.3096 14.9614 40.2056 15.8387 41.083 16.324C41.9603 16.8094 42.9496 17.052 44.051 17.052C44.6856 17.052 45.2643 16.9587 45.787 16.772C46.3096 16.5667 46.7203 16.296 47.019 15.96C47.3176 15.6054 47.467 15.204 47.467 14.756C47.467 14.4387 47.4016 14.1494 47.271 13.888C47.159 13.608 46.9816 13.3654 46.739 13.16C46.4963 12.936 46.1976 12.7307 45.843 12.544C45.4883 12.3574 45.087 12.1987 44.639 12.068C44.191 11.9374 43.6963 11.816 43.155 11.704C42.1283 11.4987 41.2323 11.228 40.467 10.892C39.7016 10.5374 39.0576 10.108 38.535 9.60403C38.0123 9.08137 37.6296 8.5027 37.387 7.86803C37.1443 7.2147 37.023 6.47737 37.023 5.65603C37.023 4.8347 37.2003 4.0787 37.555 3.38803C37.9283 2.69737 38.4323 2.10003 39.067 1.59603C39.7016 1.09203 40.439 0.700034 41.279 0.420034C42.119 0.140035 43.0243 3.48091e-05 43.995 3.48091e-05C45.0963 3.48091e-05 46.0763 0.130701 46.935 0.392035C47.8123 0.653368 48.5776 1.04537 49.231 1.56803C49.903 2.07203 50.4536 2.68803 50.883 3.41603L48.475 5.79604C48.1016 5.21737 47.6816 4.74137 47.215 4.36803C46.7483 3.97603 46.2443 3.6867 45.703 3.50003C45.1616 3.2947 44.5923 3.19203 43.995 3.19203C43.323 3.19203 42.735 3.28537 42.231 3.47204C41.7456 3.6587 41.363 3.92937 41.083 4.28403C40.803 4.62003 40.663 5.0307 40.663 5.51603C40.663 5.88937 40.747 6.22537 40.915 6.52403C41.083 6.80403 41.3163 7.05603 41.615 7.28003C41.9323 7.50403 42.3336 7.70003 42.819 7.86803C43.3043 8.03603 43.855 8.18537 44.471 8.31603C45.4976 8.52137 46.4216 8.80137 47.243 9.15603C48.0643 9.49203 48.7643 9.9027 49.343 10.388C49.9216 10.8547 50.3603 11.396 50.659 12.012C50.9576 12.6094 51.107 13.2814 51.107 14.028C51.107 15.316 50.799 16.4267 50.183 17.36C49.5856 18.2747 48.7363 18.984 47.635 19.488C46.5336 19.9734 45.2456 20.216 43.771 20.216ZM56.0897 19.936V1.42803H59.5337V19.936H56.0897ZM53.1777 8.37203V5.18003H62.7537V8.37203H53.1777ZM71.9878 20.216C70.5131 20.216 69.1971 19.8894 68.0398 19.236C66.8824 18.564 65.9678 17.6494 65.2958 16.492C64.6238 15.3347 64.2878 14.0187 64.2878 12.544C64.2878 11.0694 64.6238 9.75337 65.2958 8.59603C65.9678 7.4387 66.8824 6.53337 68.0398 5.88003C69.1971 5.20803 70.5131 4.87203 71.9878 4.87203C73.4438 4.87203 74.7504 5.20803 75.9078 5.88003C77.0651 6.53337 77.9704 7.4387 78.6238 8.59603C79.2958 9.75337 79.6318 11.0694 79.6318 12.544C79.6318 14.0187 79.2958 15.3347 78.6238 16.492C77.9704 17.6494 77.0651 18.564 75.9078 19.236C74.7504 19.8894 73.4438 20.216 71.9878 20.216ZM71.9878 17.164C72.7904 17.164 73.4998 16.9587 74.1158 16.548C74.7504 16.1374 75.2451 15.5867 75.5998 14.896C75.9731 14.2054 76.1504 13.4214 76.1318 12.544C76.1504 11.648 75.9731 10.8547 75.5998 10.164C75.2451 9.47337 74.7504 8.93203 74.1158 8.54004C73.4998 8.12937 72.7904 7.92403 71.9878 7.92403C71.1851 7.92403 70.4571 8.12937 69.8038 8.54004C69.1691 8.93203 68.6744 9.4827 68.3198 10.192C67.9651 10.8827 67.7878 11.6667 67.7878 12.544C67.7878 13.4214 67.9651 14.2054 68.3198 14.896C68.6744 15.5867 69.1691 16.1374 69.8038 16.548C70.4571 16.9587 71.1851 17.164 71.9878 17.164ZM82.7124 19.936V5.18003H86.1004L86.1564 9.88403L85.6804 8.82003C85.8857 8.07337 86.2404 7.40137 86.7444 6.80403C87.2484 6.2067 87.8271 5.74003 88.4804 5.40403C89.1524 5.04937 89.8524 4.87203 90.5804 4.87203C90.8977 4.87203 91.1964 4.90003 91.4764 4.95603C91.7751 5.01203 92.0177 5.07737 92.2044 5.15204L91.2804 8.93203C91.0751 8.82003 90.8231 8.7267 90.5244 8.65203C90.2257 8.57737 89.9271 8.54004 89.6284 8.54004C89.1617 8.54004 88.7137 8.63337 88.2844 8.82003C87.8737 8.98803 87.5097 9.2307 87.1924 9.54803C86.8751 9.86537 86.6231 10.2387 86.4364 10.668C86.2684 11.0787 86.1844 11.5454 86.1844 12.068V19.936H82.7124ZM100.785 20.216C99.2353 20.216 97.8633 19.8894 96.6687 19.236C95.4927 18.5827 94.5687 17.696 93.8967 16.576C93.2433 15.4374 92.9167 14.14 92.9167 12.684C92.9167 11.5267 93.1033 10.472 93.4767 9.52003C93.85 8.56803 94.3633 7.7467 95.0167 7.05603C95.6887 6.3467 96.482 5.80537 97.3967 5.43203C98.33 5.04003 99.3473 4.84403 100.449 4.84403C101.419 4.84403 102.325 5.0307 103.165 5.40403C104.005 5.77737 104.733 6.2907 105.349 6.94403C105.965 7.5787 106.431 8.34403 106.749 9.24003C107.085 10.1174 107.243 11.0787 107.225 12.124L107.197 13.328H95.2407L94.5967 10.976H104.313L103.865 11.452V10.836C103.809 10.2574 103.622 9.75337 103.305 9.32403C102.987 8.87603 102.577 8.5307 102.073 8.28803C101.587 8.0267 101.046 7.89603 100.449 7.89603C99.534 7.89603 98.7593 8.07337 98.1247 8.42803C97.5087 8.7827 97.042 9.29603 96.7247 9.96803C96.4073 10.6214 96.2487 11.4427 96.2487 12.432C96.2487 13.384 96.4447 14.2147 96.8367 14.924C97.2473 15.6334 97.8167 16.184 98.5447 16.576C99.2913 16.9494 100.159 17.136 101.149 17.136C101.839 17.136 102.474 17.024 103.053 16.8C103.631 16.576 104.257 16.1747 104.929 15.596L106.637 17.976C106.133 18.4427 105.554 18.844 104.901 19.18C104.266 19.4974 103.594 19.7494 102.885 19.936C102.175 20.1227 101.475 20.216 100.785 20.216Z" fill="#F5F4F9"/>
</svg>
