<svg width="56" height="56" viewBox="0 0 56 56" fill="none" xmlns="http://www.w3.org/2000/svg">
<path d="M40.8592 35.0222C45.8613 41.1518 48.1648 46.1752 47.0018 48.4216C46.1097 50.1261 40.5995 53.4562 36.5458 54.7318C33.2035 55.7816 28.8224 56.2331 25.2091 55.8832C20.8957 55.4655 16.5259 53.919 12.7771 51.4807C9.62678 49.4262 8.91541 48.5796 8.91541 46.8976C8.91541 43.5224 12.6303 37.6072 18.9875 30.8568C22.6008 27.03 27.6255 22.5372 28.1788 22.6614C29.2402 22.8984 37.6975 31.139 40.8592 35.0222ZM20.3876 15.3352C17.034 12.2986 13.8272 9.25072 10.6317 8.17832C8.91541 7.60261 8.7912 7.63648 7.39105 9.09268C4.09392 12.5244 1.35008 18.0896 0.582256 22.9097C-0.0274873 26.7704 -0.106528 27.854 0.108011 29.7392C0.740337 35.4399 2.06145 39.3795 4.68108 43.3869C5.75378 45.035 6.04736 45.3398 5.7312 44.5045C5.25695 43.2627 5.69732 40.2713 6.80389 37.2799C8.41858 32.8774 12.89 24.5352 20.3876 15.3352ZM55.5721 22.5033C53.6638 13.4726 47.9503 7.79451 47.1486 7.79451C46.3243 7.79451 44.416 8.52826 43.0836 9.3636C40.4527 11.0004 38.4541 12.9082 35.8231 15.3239C40.6108 21.3406 47.3631 31.06 49.7005 38.1604C50.4683 40.4971 50.7957 42.7999 50.536 44.0642C50.3441 45.0237 50.3441 45.0237 50.6941 44.5835C51.3829 43.7143 52.9411 41.0502 53.5622 39.673C54.3977 37.8443 55.2559 35.1351 55.6624 33.0467C56.1479 30.5068 56.1028 25.0545 55.5721 22.5033ZM15.0467 3.95645C20.4328 3.67424 27.4335 7.85096 27.9529 7.95255C28.032 7.96384 29.1273 7.47844 30.3919 6.85757C37.6072 3.34687 41.006 3.94516 42.519 4.01289C35.3037 -0.423459 25.2769 -1.63132 16.1081 2.69215C13.4659 3.94516 13.3982 4.03547 15.0467 3.95645Z" fill="#3B44F6"/>
</svg>
