<svg width="355" height="238" viewBox="0 0 355 238" fill="none" xmlns="http://www.w3.org/2000/svg">
<g clip-path="url(#clip0_1303_407)">
<path d="M355 0H0V238H355V0Z" fill="#CCEFF6"/>
<path d="M262.075 83.3549V88.1345H195.396V83.3549H262.075ZM208.403 85.9428C208.402 85.7219 208.338 85.5061 208.216 85.3226C208.094 85.1391 207.922 84.996 207.72 84.9115C207.518 84.827 207.295 84.8051 207.081 84.8481C206.867 84.8911 206.67 84.9975 206.515 85.1539C206.36 85.31 206.255 85.5091 206.212 85.7256C206.17 85.9421 206.191 86.1667 206.275 86.3706C206.359 86.5749 206.5 86.7491 206.682 86.8722C206.864 86.9949 207.077 87.0605 207.296 87.0609C207.442 87.0617 207.587 87.0331 207.722 86.9771C207.857 86.9211 207.98 86.8385 208.083 86.7339C208.186 86.6298 208.268 86.5059 208.324 86.3695C208.379 86.2331 208.407 86.0867 208.406 85.9391L208.403 85.9428ZM204.05 85.9428C204.05 85.7219 203.985 85.5061 203.863 85.3226C203.742 85.1391 203.569 84.996 203.367 84.9115C203.165 84.827 202.943 84.8051 202.729 84.8481C202.514 84.8911 202.317 84.9975 202.163 85.1536C202.008 85.3096 201.903 85.5083 201.86 85.7248C201.817 85.9413 201.839 86.166 201.922 86.3703C202.006 86.5742 202.147 86.7488 202.329 86.8718C202.51 86.9946 202.724 87.0605 202.942 87.0609C203.088 87.0617 203.233 87.0331 203.368 86.9771C203.504 86.9211 203.627 86.8385 203.73 86.7343C203.833 86.6298 203.915 86.5059 203.97 86.3695C204.026 86.2331 204.054 86.0867 204.054 85.9391L204.05 85.9428ZM199.696 85.9428C199.696 85.7219 199.631 85.5061 199.51 85.3226C199.388 85.1391 199.215 84.996 199.013 84.9115C198.811 84.827 198.589 84.8051 198.375 84.8481C198.16 84.8911 197.964 84.9975 197.809 85.1539C197.654 85.31 197.549 85.5091 197.506 85.7256C197.464 85.9421 197.485 86.1667 197.569 86.3706C197.653 86.5749 197.794 86.7491 197.976 86.8722C198.158 86.9949 198.371 87.0605 198.59 87.0609C198.736 87.062 198.881 87.0338 199.017 86.9779C199.152 86.9219 199.275 86.8396 199.379 86.7351C199.482 86.6309 199.564 86.5067 199.62 86.3699C199.676 86.2335 199.704 86.087 199.703 85.9391L199.696 85.9428Z" fill="#006B99"/>
<path d="M248.78 183.232H176.018L166.867 176.686L139.494 157.107L139.535 156.922C139.928 157.044 140.337 157.107 140.748 157.107H209.42C210.142 157.108 210.852 156.915 211.476 156.548L248.78 183.232ZM209.156 173.193H228.727L222.977 169.081L210.207 159.943H151.132L156.25 163.606L169.652 173.193H209.156ZM193.192 180.72H221.591L214.511 175.656H186.041L193.121 180.72H193.192Z" fill="#CCEFF6"/>
<path d="M228.727 173.193H209.156V173.077L203.82 169.261H222.853L222.977 169.082L228.727 173.193Z" fill="#CCEFF6"/>
<path d="M178.011 163.606L172.893 159.943H210.207L222.977 169.081L222.853 169.26H203.82L209.155 173.077V173.193H169.647L156.245 163.606H178.011Z" fill="#CCEFF6"/>
<path d="M221.591 180.72H193.192H193.12L186.04 175.656H214.439H214.511L221.591 180.72Z" fill="#F7CEDC"/>
<path d="M213.506 128.287V152.983C213.506 153.525 213.401 154.061 213.195 154.562C212.99 155.063 212.689 155.517 212.309 155.9C211.93 156.283 211.479 156.587 210.984 156.794C210.488 157.001 209.957 157.107 209.42 157.107H140.748C140.211 157.107 139.68 157.001 139.185 156.794C138.689 156.587 138.239 156.283 137.86 155.9C137.481 155.517 137.18 155.062 136.975 154.561C136.77 154.061 136.665 153.524 136.665 152.983V103.594C136.665 102.499 137.095 101.45 137.861 100.677C138.626 99.9029 139.665 99.4681 140.748 99.4673H209.42C209.957 99.4673 210.488 99.5737 210.984 99.7813C211.48 99.9885 211.931 100.293 212.31 100.676C212.689 101.059 212.99 101.514 213.196 102.015C213.401 102.516 213.507 103.053 213.506 103.595V128.287ZM210.397 150.727V105.846C210.397 104.986 210.059 104.162 209.457 103.554C208.855 102.946 208.04 102.605 207.189 102.605H142.98C142.129 102.605 141.313 102.946 140.711 103.554C140.11 104.162 139.772 104.986 139.772 105.846V150.727C139.772 151.586 140.11 152.411 140.711 153.018C141.313 153.626 142.129 153.967 142.98 153.967H207.188C208.039 153.967 208.855 153.626 209.456 153.018C210.058 152.411 210.396 151.586 210.396 150.727H210.397Z" fill="#CCEFF6"/>
<path d="M210.396 105.846V119.72H209.786V119.487C209.786 115.527 207.578 113.591 204.88 113.591H204.591C204.416 113.592 204.249 113.522 204.126 113.398C204.002 113.274 203.932 113.105 203.932 112.929V111.883C204.354 111.672 204.71 111.347 204.959 110.943C205.208 110.539 205.34 110.072 205.34 109.597V108.176C205.34 107.5 205.074 106.851 204.601 106.372C204.127 105.894 203.485 105.625 202.815 105.625C202.145 105.625 201.503 105.894 201.029 106.372C200.556 106.851 200.29 107.5 200.29 108.176V109.597C200.29 110.072 200.422 110.539 200.671 110.943C200.92 111.347 201.276 111.672 201.698 111.883V112.932C201.698 113.108 201.629 113.276 201.506 113.401C201.383 113.526 201.215 113.598 201.04 113.599C200.289 113.574 199.541 113.707 198.844 113.989C198.146 114.272 197.515 114.698 196.989 115.241C196.464 115.784 196.057 116.432 195.793 117.143C195.53 117.854 195.416 118.612 195.459 119.37H195.396V102.607H207.188C208.038 102.607 208.854 102.948 209.456 103.556C210.057 104.163 210.396 104.987 210.396 105.846Z" fill="#F7CEDC"/>
<path d="M209.713 152.527L209.85 152.537C209.556 152.977 209.16 153.338 208.697 153.587C208.233 153.836 207.716 153.966 207.191 153.966H195.396V153.606H195.459C195.416 152.848 195.53 152.089 195.793 151.378C196.057 150.667 196.464 150.019 196.989 149.477C197.515 148.934 198.146 148.507 198.844 148.224C199.541 147.942 200.289 147.809 201.04 147.835C201.126 147.835 201.212 147.818 201.292 147.785C201.372 147.752 201.445 147.703 201.506 147.642C201.567 147.58 201.616 147.507 201.649 147.427C201.682 147.346 201.7 147.259 201.7 147.172V146.123C201.277 145.913 200.921 145.587 200.672 145.183C200.423 144.779 200.291 144.312 200.291 143.837V142.417C200.291 141.74 200.557 141.091 201.03 140.613C201.504 140.135 202.146 139.866 202.816 139.866C203.486 139.866 204.128 140.135 204.602 140.613C205.075 141.091 205.341 141.74 205.341 142.417V143.837C205.341 144.312 205.209 144.779 204.96 145.183C204.711 145.587 204.355 145.913 203.932 146.123V147.174C203.933 147.35 204.003 147.519 204.126 147.643C204.25 147.767 204.418 147.837 204.592 147.837H204.88C207.291 147.834 209.308 149.379 209.713 152.527Z" fill="#006B99"/>
<path d="M209.787 136.453V136.789H195.396V136.327H195.459C195.416 135.57 195.53 134.811 195.794 134.1C196.057 133.389 196.465 132.742 196.99 132.199C197.515 131.656 198.146 131.23 198.844 130.947C199.541 130.665 200.289 130.532 201.04 130.557C201.215 130.557 201.383 130.487 201.507 130.362C201.63 130.238 201.699 130.07 201.7 129.894V128.845C201.277 128.635 200.921 128.309 200.672 127.905C200.423 127.501 200.291 127.035 200.291 126.558V125.139C200.291 124.462 200.557 123.813 201.03 123.335C201.504 122.857 202.146 122.588 202.816 122.588C203.486 122.588 204.128 122.857 204.602 123.335C205.075 123.813 205.341 124.462 205.341 125.139V126.561C205.341 127.037 205.209 127.503 204.96 127.908C204.711 128.312 204.355 128.638 203.932 128.848V129.892C203.933 130.068 204.003 130.236 204.126 130.361C204.25 130.485 204.418 130.555 204.592 130.555H204.88C207.579 130.557 209.787 132.496 209.787 136.453Z" fill="#006B99"/>
<path d="M209.787 119.49V119.724H195.396V119.364H195.459C195.417 118.606 195.531 117.848 195.795 117.138C196.059 116.428 196.467 115.781 196.992 115.239C197.517 114.696 198.148 114.271 198.845 113.988C199.542 113.706 200.29 113.573 201.04 113.599C201.215 113.599 201.383 113.529 201.507 113.405C201.63 113.281 201.699 113.112 201.7 112.937V111.883C201.277 111.672 200.921 111.347 200.672 110.942C200.423 110.538 200.291 110.072 200.291 109.596V108.176C200.291 107.499 200.557 106.851 201.03 106.372C201.504 105.894 202.146 105.625 202.816 105.625C203.486 105.625 204.128 105.894 204.602 106.372C205.075 106.851 205.341 107.499 205.341 108.176V109.596C205.341 110.072 205.209 110.538 204.96 110.942C204.711 111.347 204.355 111.672 203.932 111.883V112.932C203.933 113.108 204.003 113.277 204.126 113.401C204.25 113.525 204.418 113.595 204.592 113.595H204.88C207.579 113.599 209.787 115.533 209.787 119.49Z" fill="#006B99"/>
<path d="M202.946 84.824C203.165 84.8237 203.379 84.8885 203.561 85.0112C203.743 85.1336 203.885 85.3082 203.97 85.5121C204.054 85.7164 204.076 85.9414 204.033 86.1582C203.991 86.3751 203.885 86.5742 203.731 86.7306C203.576 86.8871 203.379 86.9938 203.164 87.0368C202.949 87.0798 202.727 87.0576 202.525 86.9731C202.323 86.8882 202.15 86.7447 202.028 86.5608C201.907 86.3766 201.842 86.1605 201.843 85.9395C201.843 85.6437 201.959 85.3605 202.166 85.1514C202.373 84.9423 202.653 84.8248 202.946 84.824Z" fill="#FFCEB6"/>
<path d="M198.593 84.824C198.812 84.8237 199.026 84.8889 199.208 85.0116C199.391 85.1343 199.533 85.3086 199.617 85.5128C199.7 85.7171 199.722 85.9417 199.68 86.1586C199.637 86.3755 199.532 86.5746 199.377 86.731C199.222 86.8874 199.025 86.9938 198.81 87.0368C198.596 87.0798 198.373 87.0576 198.171 86.9727C197.969 86.8882 197.796 86.7447 197.675 86.5608C197.554 86.3766 197.489 86.1605 197.49 85.9395C197.49 85.6437 197.606 85.3601 197.813 85.151C198.02 84.9419 198.301 84.8244 198.593 84.824Z" fill="#CCEFF6"/>
<path d="M184.342 51.6245V56.4086H92.78V51.6245H184.342ZM105.794 54.2132C105.793 53.9923 105.729 53.7765 105.607 53.593C105.485 53.4095 105.313 53.2664 105.111 53.1819C104.908 53.0977 104.686 53.0755 104.472 53.1185C104.258 53.1619 104.06 53.2683 103.906 53.4243C103.751 53.5804 103.646 53.7795 103.603 53.996C103.561 54.2128 103.582 54.4371 103.666 54.6414C103.75 54.8453 103.891 55.0199 104.073 55.1426C104.255 55.2653 104.468 55.3309 104.687 55.3313C104.832 55.3317 104.976 55.3027 105.111 55.2468C105.245 55.1904 105.367 55.1081 105.47 55.0043C105.573 54.9005 105.654 54.7771 105.71 54.6414C105.765 54.5057 105.794 54.36 105.794 54.2132ZM101.441 54.2132C101.441 53.9926 101.376 53.7765 101.254 53.593C101.133 53.4095 100.96 53.2664 100.758 53.1822C100.556 53.0977 100.334 53.0755 100.12 53.1185C99.9051 53.1615 99.7084 53.2679 99.5534 53.424C99.3989 53.58 99.2935 53.7791 99.251 53.9956C99.2081 54.2121 99.2299 54.4364 99.3131 54.6406C99.3967 54.8449 99.5379 55.0191 99.7195 55.1422C99.901 55.2649 100.115 55.3309 100.333 55.3313C100.479 55.3317 100.623 55.3031 100.757 55.2468C100.892 55.1908 101.014 55.1085 101.117 55.0047C101.22 54.9009 101.301 54.7774 101.357 54.6418C101.413 54.5057 101.441 54.3604 101.441 54.2132ZM97.0873 54.2132C97.0873 53.9923 97.0222 53.7765 96.9006 53.593C96.7789 53.4095 96.6062 53.2664 96.4043 53.1819C96.2024 53.0977 95.9801 53.0755 95.7657 53.1185C95.5512 53.1619 95.3545 53.2683 95.1999 53.4243C95.0449 53.5804 94.9399 53.7795 94.897 53.996C94.8545 54.2128 94.8763 54.4371 94.9599 54.6414C95.0435 54.8453 95.1851 55.0199 95.3667 55.1426C95.5486 55.2653 95.762 55.3309 95.9809 55.3313C96.1262 55.3317 96.2701 55.3027 96.4047 55.2468C96.5389 55.1904 96.6609 55.1081 96.7637 55.0043C96.8665 54.9005 96.9479 54.7771 97.0037 54.6414C97.0592 54.5057 97.0877 54.36 97.0873 54.2132Z" fill="#006B99"/>
<path d="M181.186 120.631V122.827L179.034 121.747C179.255 121.377 179.574 121.078 179.954 120.881C180.334 120.684 180.76 120.597 181.186 120.631Z" fill="#FFCEB6"/>
<path d="M172.894 159.943L178.011 163.606H156.245L151.127 159.943H172.894Z" fill="#CCEFF6"/>
<path d="M163.192 75.9446C163.271 76.0024 163.337 76.0766 163.386 76.1622C163.434 76.2479 163.465 76.3428 163.474 76.441C163.484 76.5392 163.473 76.6386 163.442 76.732C163.411 76.8254 163.361 76.9114 163.294 76.9841L161.334 79.076L159.307 81.2362L155.496 85.3074L155.271 85.3389C155.183 85.2422 155.083 85.1588 154.972 85.0906C154.729 84.9352 154.449 84.8466 154.161 84.8333V84.827L159.34 79.2236L162.28 76.0354C162.345 75.965 162.424 75.9086 162.511 75.8701C162.598 75.8319 162.692 75.8119 162.787 75.8123C162.933 75.8126 163.074 75.859 163.192 75.9446Z" fill="#006B99"/>
<path d="M158.782 111.55L161.122 112.728C160.665 114.164 158.781 113.692 158.781 113.692L158.782 111.55Z" fill="#FFCEB6"/>
<path d="M157.747 68.3764V70.5729L155.598 69.4927C155.819 69.1238 156.136 68.8243 156.516 68.6274C156.896 68.4302 157.322 68.3434 157.747 68.3764Z" fill="#FFCEB6"/>
<path d="M156.242 88.6216C156.578 89.5614 155.542 90.5119 155.542 90.5119C154.75 89.9622 153.117 90.7128 152.648 91.6111C151.222 91.4165 151.258 90.6658 151.757 89.9592C152.098 89.4995 152.523 89.1102 153.009 88.8126C154.125 88.1349 155.906 87.683 156.242 88.6216Z" fill="#FFCEB6"/>
<path d="M155.122 86.9412C156.392 87.6678 156.242 88.6216 156.242 88.6216C155.906 87.683 154.125 88.1349 153.008 88.8107C152.522 89.1084 152.096 89.4976 151.755 89.9577L151.593 89.8468C151.463 89.8398 151.334 89.8198 151.207 89.7875C150.157 89.5236 150.781 88.5623 150.825 88.493C151.385 88.2783 151.914 87.9921 152.401 87.6414C152.542 87.5321 152.661 87.3968 152.752 87.2429L152.855 87.2581C152.855 87.2581 154.273 86.4544 155.122 86.9412Z" fill="#FFCEB6"/>
<path d="M152.647 91.6093C153.117 90.7092 154.749 89.9603 155.542 90.5101C156.335 91.0602 155.887 92.5579 154.01 94.7066C153.559 95.3038 152.982 95.7917 152.321 96.1342C151.66 96.4771 150.931 96.6658 150.188 96.687L148.852 99.4295V99.4673H141.973V99.4314L144.843 93.2897L147.507 88.159C147.679 87.8773 147.926 87.6496 148.22 87.5028C149.393 86.8648 150.663 86.4296 151.979 86.215C152.122 86.2057 152.265 86.2205 152.402 86.2591C152.498 86.2884 152.586 86.3403 152.658 86.41C152.731 86.4796 152.786 86.5653 152.82 86.6606C152.855 86.7555 152.866 86.8574 152.855 86.9579C152.843 87.0583 152.808 87.1544 152.753 87.2392C152.662 87.3931 152.543 87.5284 152.402 87.6378C151.915 87.9885 151.385 88.2747 150.826 88.4893C150.655 88.5586 150.494 88.6246 150.35 88.6784L150.375 88.747L145.935 93.4906C145.869 93.5629 145.819 93.6486 145.788 93.742C145.757 93.8354 145.746 93.9344 145.756 94.0323C145.766 94.1301 145.796 94.225 145.844 94.3103C145.893 94.3959 145.959 94.4697 146.038 94.5275C146.156 94.6132 146.299 94.6591 146.445 94.6588C146.54 94.6588 146.634 94.6391 146.722 94.6006C146.809 94.5624 146.887 94.506 146.952 94.4356L151.097 90.007L151.208 89.7838C151.335 89.8165 151.464 89.8361 151.594 89.8432L151.756 89.954C151.257 90.6643 151.223 91.415 152.647 91.6093Z" fill="#FFCEB6"/>
<path d="M155.272 85.3423C155.854 86.0211 155.123 86.9412 155.123 86.9412C154.274 86.4541 152.859 87.2552 152.859 87.2552L152.757 87.24C152.811 87.1555 152.846 87.0591 152.857 86.9586C152.869 86.8582 152.857 86.7562 152.823 86.6613C152.789 86.566 152.734 86.4804 152.661 86.4107C152.589 86.341 152.501 86.2891 152.405 86.2598C152.268 86.2213 152.125 86.2064 151.982 86.2157C152.203 85.8201 152.518 85.4869 152.899 85.2463C153.279 85.0061 153.714 84.8659 154.162 84.8392C154.45 84.8526 154.73 84.9412 154.973 85.0965C155.084 85.164 155.185 85.2466 155.272 85.3423Z" fill="#FFCEB6"/>
<path d="M154.974 153.605V153.965H142.98C142.459 153.966 141.946 153.838 141.485 153.593C141.025 153.348 140.631 152.992 140.337 152.558L140.383 152.526C140.788 149.376 142.806 147.833 145.213 147.833H145.505C145.679 147.833 145.845 147.763 145.969 147.639C146.092 147.515 146.161 147.346 146.161 147.171V146.121C145.739 145.911 145.383 145.585 145.135 145.181C144.886 144.777 144.755 144.31 144.756 143.835V142.415C144.749 142.076 144.81 141.739 144.934 141.424C145.058 141.11 145.243 140.823 145.478 140.581C145.713 140.338 145.993 140.146 146.303 140.015C146.612 139.884 146.944 139.816 147.28 139.816C147.616 139.816 147.948 139.884 148.258 140.015C148.567 140.146 148.847 140.338 149.083 140.581C149.317 140.823 149.503 141.11 149.627 141.424C149.75 141.739 149.811 142.076 149.805 142.415V143.835C149.805 144.311 149.673 144.777 149.424 145.181C149.175 145.585 148.82 145.911 148.397 146.121V147.174C148.397 147.35 148.467 147.518 148.589 147.642C148.712 147.766 148.879 147.837 149.053 147.837C149.804 147.811 150.553 147.943 151.25 148.225C151.949 148.508 152.58 148.934 153.106 149.477C153.631 150.02 154.039 150.668 154.303 151.379C154.567 152.09 154.681 152.849 154.638 153.607L154.974 153.605Z" fill="#006B99"/>
<path d="M154.974 136.789V153.605H154.639C154.682 152.846 154.567 152.088 154.304 151.377C154.04 150.665 153.632 150.017 153.107 149.474C152.581 148.932 151.949 148.505 151.251 148.222C150.554 147.94 149.805 147.808 149.054 147.834C148.88 147.834 148.713 147.764 148.59 147.64C148.467 147.516 148.398 147.347 148.398 147.171V146.122C148.82 145.911 149.176 145.586 149.425 145.182C149.674 144.778 149.806 144.311 149.806 143.835V142.416C149.793 141.748 149.522 141.111 149.05 140.643C148.578 140.175 147.943 139.913 147.281 139.913C146.619 139.913 145.985 140.175 145.512 140.643C145.04 141.111 144.769 141.748 144.756 142.416V143.835C144.756 144.311 144.887 144.777 145.135 145.181C145.384 145.586 145.739 145.911 146.162 146.122V147.174C146.162 147.35 146.092 147.518 145.969 147.643C145.847 147.767 145.68 147.837 145.506 147.837H145.214C142.808 147.837 140.789 149.382 140.384 152.53L140.338 152.561C139.97 152.023 139.773 151.384 139.775 150.73V136.789H154.974Z" fill="#F7CEDC"/>
<path d="M154.974 136.328V136.789H140.309V136.453C140.309 132.493 142.517 130.558 145.21 130.558H145.502C145.676 130.557 145.843 130.487 145.966 130.363C146.089 130.239 146.158 130.07 146.158 129.894V128.845C145.736 128.635 145.381 128.309 145.132 127.905C144.884 127.501 144.752 127.034 144.753 126.559V125.139C144.747 124.8 144.807 124.463 144.931 124.148C145.056 123.833 145.24 123.546 145.476 123.304C145.71 123.062 145.991 122.87 146.3 122.739C146.61 122.607 146.942 122.54 147.278 122.54C147.613 122.54 147.946 122.607 148.255 122.739C148.565 122.87 148.845 123.062 149.08 123.304C149.315 123.546 149.5 123.833 149.624 124.148C149.748 124.463 149.809 124.8 149.803 125.139V126.561C149.802 127.037 149.671 127.504 149.422 127.908C149.173 128.312 148.817 128.638 148.395 128.848V129.892C148.395 130.067 148.464 130.236 148.587 130.36C148.71 130.484 148.877 130.554 149.05 130.555C149.802 130.529 150.55 130.661 151.248 130.944C151.946 131.226 152.577 131.652 153.103 132.195C153.628 132.738 154.036 133.386 154.3 134.097C154.564 134.808 154.678 135.567 154.635 136.325L154.974 136.328Z" fill="#006B99"/>
<path d="M154.974 119.366V119.725H140.309V119.492C140.309 115.532 142.517 113.596 145.21 113.596H145.502C145.676 113.596 145.843 113.526 145.966 113.402C146.089 113.278 146.158 113.11 146.158 112.934V111.883C145.736 111.672 145.381 111.346 145.133 110.942C144.884 110.538 144.753 110.072 144.753 109.596V108.176C144.747 107.837 144.807 107.5 144.931 107.185C145.056 106.87 145.24 106.583 145.476 106.341C145.71 106.099 145.991 105.907 146.3 105.776C146.61 105.645 146.942 105.577 147.278 105.577C147.613 105.577 147.946 105.645 148.255 105.776C148.565 105.907 148.845 106.099 149.08 106.341C149.315 106.583 149.5 106.87 149.624 107.185C149.748 107.5 149.809 107.837 149.803 108.176V109.596C149.802 110.072 149.671 110.538 149.422 110.942C149.173 111.347 148.817 111.672 148.395 111.883V112.932C148.395 113.108 148.464 113.276 148.587 113.4C148.71 113.525 148.877 113.595 149.05 113.595C149.802 113.569 150.55 113.701 151.248 113.983C151.946 114.266 152.578 114.692 153.103 115.235C153.629 115.778 154.036 116.426 154.3 117.137C154.564 117.848 154.678 118.607 154.635 119.366H154.974Z" fill="#006B99"/>
<path d="M151.208 89.7872L151.096 90.0103L146.955 94.4389C146.89 94.5093 146.811 94.5657 146.724 94.6039C146.637 94.6424 146.543 94.6625 146.448 94.6625C146.302 94.6625 146.159 94.6165 146.041 94.5308C145.962 94.473 145.896 94.3992 145.847 94.314C145.798 94.2283 145.768 94.1338 145.759 94.0356C145.749 93.9377 145.76 93.8387 145.791 93.7453C145.822 93.6519 145.872 93.5662 145.938 93.4939L150.378 88.7503L150.353 88.6817C150.497 88.6279 150.658 88.5619 150.829 88.493C150.786 88.5619 150.157 89.5236 151.208 89.7872Z" fill="#006B99"/>
<path d="M135.344 59.2957L137.688 60.4739C137.234 61.9086 135.347 61.4381 135.347 61.4381L135.344 59.2957Z" fill="#FFCEB6"/>
<path d="M136.665 105.336V115.408H132.455V115.303L129.585 111.883C130.157 110.538 130.463 109.093 130.483 107.63C130.483 105.93 129.376 103.81 128.421 102.293L132.455 99.4673L136.665 105.336Z" fill="#FFCEB6"/>
<path d="M127.582 56.409V91.7542L127.538 91.8443C126.947 91.5751 126.326 91.3801 125.688 91.2637L125.716 91.1225V56.409H127.582Z" fill="#CCEFF6"/>
<path d="M121.08 83.4453C121.587 84.4659 121.024 85.9495 119.954 86.0845C119.575 86.1378 119.188 86.0752 118.844 85.9043C119.285 85.2448 119.622 84.5197 119.842 83.7556C119.973 83.4379 120.187 83.0924 120.396 82.6531C120.692 82.8481 120.929 83.1224 121.08 83.4453Z" fill="#006B99"/>
<path d="M117.525 90.0322L120.961 91.1258C120.961 91.1258 119.071 93.2367 113.975 93.5129C110.779 93.62 107.62 92.7907 104.879 91.1258L109.208 89.3193L106.4 86.3796C106.419 86.3796 106.03 83.247 106.049 83.2444C106.584 83.1751 110.349 86.5523 110.656 86.106L111.491 86.3002C112.308 86.867 113.202 87.3115 114.146 87.62L114.177 87.63C114.451 87.7334 116.509 88.4967 117.444 88.7855H117.461L117.47 88.9583L117.525 90.0322Z" fill="#FFCEB6"/>
<path d="M118.763 83.0464C118.664 83.1176 118.559 83.1799 118.449 83.2318C118.449 83.2318 117.38 82.996 116.987 82.9615C116.674 82.9337 114.895 83.022 114.211 83.0624C114.043 83.0687 113.944 83.075 113.944 83.075C114.388 83.4598 114.858 83.8145 115.349 84.1371C115.612 84.3321 115.916 84.4629 116.237 84.5197C116.559 84.5764 116.889 84.5575 117.202 84.464C117.787 84.0689 118.312 83.5918 118.763 83.0464ZM105.275 78.6175C105.762 78.0777 106.44 78.3754 106.879 78.6772C107.329 79.0064 107.875 79.1743 108.431 79.1543C111.359 78.9596 111.978 74.54 112.161 72.9692C112.161 72.9692 116.176 73.4085 117.473 74.0558C117.597 74.1188 117.722 74.1882 117.843 74.2575C119.115 75.0126 120.056 76.2289 120.474 77.6592L120.443 77.7489C120.362 77.9847 120.29 78.1415 120.29 78.1415C120.673 78.9715 120.815 79.8939 120.7 80.8021C120.583 81.4739 120.375 82.1259 120.082 82.7402C119.805 83.3345 119.513 83.7986 119.339 84.2264C119.041 85.2537 118.587 86.2283 117.995 87.1158C117.821 87.3252 117.612 87.5021 117.377 87.6378C117.154 87.7653 116.909 87.8494 116.655 87.8854C115.959 87.9673 115.253 87.9173 114.574 87.7378C114.444 87.7063 114.307 87.6719 114.18 87.6315L114.148 87.6214C113.205 87.3126 112.311 86.8685 111.493 86.3021L110.038 86.1074C110.321 85.7582 110.493 85.33 110.53 84.88C110.567 84.4303 110.469 83.9792 110.247 83.5873C109.712 82.7395 109.326 82.3999 107.97 83.0068C107.642 83.1784 107.372 83.4438 107.193 83.7701L107.099 84.1968C106.189 83.6666 104.159 80.8959 105.029 79.0112C105.089 78.867 105.172 78.7343 105.275 78.6175Z" fill="#FFCEB6"/>
<path d="M112.155 72.9533C112.157 72.9585 112.157 72.9641 112.155 72.9692C111.963 74.6564 111.26 79.6195 107.749 79.1265C107.502 79.0898 107.269 78.9863 107.075 78.8273C106.67 78.5007 105.843 77.9795 105.271 78.6179C105.168 78.7346 105.084 78.867 105.022 79.0101C104.151 80.8952 105.787 82.4407 106.698 82.9708L107.432 83.4802C107.27 83.7597 107.18 84.0763 107.171 84.4003C107.162 84.7243 107.235 85.0453 107.382 85.3338C107.764 86.4237 108.641 86.3002 109.31 86.3165L109.204 89.3193L104.875 91.1258C102.985 91.4465 101.15 92.043 99.4288 92.8964C97.8151 88.367 103.126 80.8878 104.603 76.487C104.758 76.028 104.568 72.6671 107.003 69.8938C108.237 68.8888 109.683 68.1826 111.229 67.8296C111.407 67.7829 111.578 67.741 111.742 67.7047C113.359 67.3977 115.031 67.6217 116.513 68.3431C117.995 69.0649 119.21 70.2467 119.979 71.7155C122.063 76.0039 120.47 77.6562 120.47 77.6562C120.053 76.2264 119.112 75.01 117.84 74.2549C116.735 73.3333 115.428 72.6923 114.027 72.3854C112.115 72.074 112.143 72.8436 112.155 72.9533Z" fill="#006B99"/>
<path d="M117.84 74.2575C117.719 74.1882 117.595 74.1189 117.47 74.0558C116.173 73.4086 112.159 72.9693 112.159 72.9693C112.161 72.9641 112.161 72.9585 112.159 72.9533C112.147 72.8432 112.119 72.0736 114.03 72.388C115.43 72.6957 116.736 73.3366 117.84 74.2575Z" fill="#006B99"/>
<path d="M117.402 87.6856L117.461 88.7855H117.444C116.509 88.4963 114.451 87.733 114.177 87.6296C114.307 87.67 114.444 87.7045 114.572 87.736C115.25 87.9154 115.956 87.9655 116.652 87.8835C116.906 87.8476 117.15 87.7634 117.373 87.6359L117.402 87.6856Z" fill="#006B99"/>
<path d="M109.146 86.1623C108.741 86.2112 108.331 86.1133 107.991 85.8861C107.65 85.6588 107.401 85.317 107.286 84.9211C107.203 84.685 107.173 84.4333 107.2 84.1838C107.226 83.9346 107.306 83.6944 107.436 83.4809C107.561 83.27 107.748 83.1042 107.971 83.0067C108.163 82.8922 108.377 82.8199 108.6 82.7951C108.822 82.7706 109.047 82.7936 109.259 82.8629C109.472 82.9322 109.668 83.0464 109.833 83.198C109.999 83.3493 110.131 83.5343 110.221 83.7411C110.355 84.037 110.411 84.3628 110.384 84.6868C110.357 85.0112 110.247 85.323 110.066 85.5918C109.969 85.7441 109.84 85.8735 109.689 85.9714C109.537 86.0692 109.367 86.1334 109.19 86.1597C109.175 86.1589 109.162 86.1623 109.146 86.1623Z" fill="#CCEFF6"/>
<path d="M104.879 106.476L104.606 115.408H95.576V106.103L104.879 106.476Z" fill="#FFCEB6"/>
<path d="M100.333 53.0981C100.552 53.0977 100.766 53.163 100.948 53.2857C101.13 53.4084 101.272 53.5826 101.356 53.7869C101.44 53.9912 101.462 54.2158 101.419 54.4327C101.377 54.6495 101.272 54.8486 101.117 55.0051C100.962 55.1615 100.765 55.2679 100.55 55.3109C100.336 55.3539 100.113 55.3317 99.9111 55.2468C99.7088 55.1622 99.5361 55.0188 99.4148 54.8345C99.2935 54.6507 99.2288 54.4345 99.2292 54.2136C99.2296 53.9178 99.346 53.6342 99.5528 53.4251C99.7598 53.216 100.041 53.0985 100.333 53.0981Z" fill="#FFCEB6"/>
<path d="M95.9805 53.0981C96.1995 53.0977 96.4136 53.163 96.5955 53.2857C96.7778 53.4084 96.9198 53.5826 97.0034 53.7869C97.0873 53.9912 97.1095 54.2158 97.067 54.4327C97.0245 54.6495 96.9191 54.8486 96.7641 55.0051C96.6096 55.1615 96.4121 55.2679 96.1976 55.3109C95.9828 55.3539 95.7605 55.3317 95.5582 55.2468C95.3563 55.1622 95.1836 55.0188 95.062 54.8345C94.9407 54.6507 94.8763 54.4345 94.8767 54.2136C94.8767 53.9178 94.9932 53.6342 95.2003 53.4251C95.407 53.216 95.6877 53.0985 95.9805 53.0981Z" fill="#CCEFF6"/>
<path d="M211.476 156.548C210.852 156.915 210.142 157.108 209.42 157.107H140.748C140.211 157.107 139.68 157.001 139.185 156.794C138.689 156.587 138.239 156.283 137.86 155.9C137.481 155.517 137.18 155.062 136.975 154.561C136.77 154.061 136.665 153.524 136.665 152.983V103.594C136.665 102.499 137.095 101.45 137.861 100.677C138.626 99.9029 139.665 99.4681 140.748 99.4673H209.42C209.957 99.4673 210.488 99.5737 210.984 99.7813C211.48 99.9885 211.931 100.293 212.31 100.676C212.689 101.059 212.99 101.514 213.196 102.015C213.401 102.516 213.507 103.053 213.506 103.595V152.985C213.506 153.706 213.318 154.415 212.962 155.04C212.606 155.666 212.093 156.185 211.476 156.548Z" stroke="#006B99" stroke-width="3.23435" stroke-linecap="round" stroke-linejoin="round"/>
<path d="M154.974 153.966H142.98C142.129 153.966 141.313 153.624 140.712 153.016C140.11 152.409 139.772 151.584 139.772 150.725V105.845C139.772 104.986 140.11 104.162 140.712 103.554C141.313 102.946 142.129 102.605 142.98 102.605H207.188C208.039 102.605 208.855 102.946 209.456 103.554C210.058 104.162 210.396 104.986 210.396 105.845V150.727C210.396 151.586 210.058 152.41 209.456 153.018C208.855 153.626 208.039 153.967 207.188 153.967H154.974V153.966Z" stroke="#006B99" stroke-width="3.23435" stroke-linecap="round" stroke-linejoin="round"/>
<path d="M171.062 101.3H176.357" stroke="#006B99" stroke-width="3.23435" stroke-linecap="round" stroke-linejoin="round"/>
<path d="M154.973 102.607V119.366V119.724V136.328V136.79V153.605V153.966" stroke="#006B99" stroke-width="3.23435" stroke-linecap="round" stroke-linejoin="round"/>
<path d="M195.396 102.607V119.366V119.724V136.328V136.79V153.605V153.966" stroke="#006B99" stroke-width="3.23435" stroke-linecap="round" stroke-linejoin="round"/>
<path d="M139.774 119.724H140.309H154.973" stroke="#006B99" stroke-width="3.23435" stroke-linecap="round" stroke-linejoin="round"/>
<path d="M139.774 136.789H140.309H154.973" stroke="#006B99" stroke-width="3.23435" stroke-linecap="round" stroke-linejoin="round"/>
<path d="M154.638 119.366C154.68 118.608 154.566 117.849 154.301 117.139C154.037 116.428 153.63 115.781 153.104 115.238C152.579 114.696 151.947 114.27 151.25 113.988C150.552 113.705 149.804 113.573 149.053 113.599C148.879 113.599 148.712 113.529 148.59 113.405C148.467 113.281 148.397 113.113 148.397 112.937V111.883C148.82 111.672 149.175 111.347 149.424 110.942C149.673 110.539 149.805 110.072 149.805 109.596V108.176C149.793 107.508 149.521 106.871 149.049 106.403C148.577 105.935 147.942 105.673 147.28 105.673C146.619 105.673 145.984 105.935 145.512 106.403C145.04 106.871 144.768 107.508 144.756 108.176V109.596C144.755 110.072 144.887 110.538 145.135 110.942C145.384 111.346 145.739 111.672 146.161 111.883V112.932C146.161 113.108 146.091 113.276 145.969 113.401C145.845 113.525 145.679 113.595 145.505 113.595H145.213C142.517 113.595 140.312 115.533 140.312 119.491" stroke="#006B99" stroke-width="3.23435" stroke-linecap="round" stroke-linejoin="round"/>
<path d="M154.638 136.328C154.681 135.57 154.566 134.811 154.302 134.1C154.039 133.389 153.631 132.741 153.105 132.198C152.58 131.655 151.948 131.229 151.25 130.946C150.553 130.664 149.804 130.532 149.053 130.558C148.879 130.557 148.712 130.487 148.59 130.362C148.467 130.238 148.397 130.07 148.397 129.894V128.845C148.819 128.635 149.175 128.31 149.424 127.906C149.673 127.503 149.805 127.037 149.806 126.561V125.139C149.793 124.471 149.522 123.834 149.05 123.366C148.577 122.898 147.943 122.636 147.281 122.636C146.619 122.636 145.984 122.898 145.512 123.366C145.04 123.834 144.769 124.471 144.756 125.139V126.561C144.756 127.037 144.887 127.503 145.135 127.908C145.384 128.312 145.739 128.638 146.162 128.848V129.892C146.162 130.067 146.092 130.236 145.969 130.36C145.847 130.485 145.68 130.555 145.506 130.555H145.213C142.517 130.555 140.313 132.493 140.313 136.451" stroke="#006B99" stroke-width="3.23435" stroke-linecap="round" stroke-linejoin="round"/>
<path d="M154.638 153.605C154.681 152.846 154.566 152.088 154.303 151.377C154.039 150.665 153.631 150.017 153.106 149.474C152.58 148.931 151.948 148.505 151.25 148.222C150.553 147.94 149.804 147.808 149.053 147.834C148.879 147.834 148.712 147.764 148.589 147.64C148.467 147.516 148.397 147.347 148.397 147.171V146.122C148.819 145.911 149.175 145.586 149.424 145.182C149.673 144.778 149.805 144.311 149.805 143.835V142.416C149.792 141.748 149.521 141.111 149.049 140.643C148.577 140.175 147.941 139.913 147.28 139.913C146.619 139.913 145.983 140.175 145.511 140.643C145.039 141.111 144.768 141.748 144.755 142.416V143.835C144.755 144.311 144.886 144.777 145.134 145.181C145.383 145.586 145.738 145.911 146.161 146.122V147.174C146.161 147.35 146.091 147.518 145.968 147.643C145.845 147.767 145.679 147.837 145.505 147.837H145.212C142.807 147.837 140.787 149.382 140.383 152.53" stroke="#006B99" stroke-width="3.23435" stroke-linecap="round" stroke-linejoin="round"/>
<path d="M210.397 119.724H209.787H195.434" stroke="#006B99" stroke-width="3.23435" stroke-linecap="round" stroke-linejoin="round"/>
<path d="M210.397 136.789H209.787H195.434" stroke="#006B99" stroke-width="3.23435" stroke-linecap="round" stroke-linejoin="round"/>
<path d="M195.459 119.366C195.416 118.608 195.531 117.85 195.794 117.139C196.058 116.429 196.466 115.782 196.991 115.239C197.516 114.697 198.147 114.271 198.844 113.988C199.541 113.706 200.289 113.573 201.04 113.599C201.215 113.599 201.382 113.529 201.507 113.405C201.63 113.281 201.699 113.112 201.699 112.937V111.883C201.277 111.672 200.921 111.347 200.672 110.942C200.423 110.538 200.291 110.072 200.291 109.596V108.176C200.291 107.499 200.557 106.851 201.03 106.372C201.504 105.894 202.146 105.625 202.816 105.625C203.485 105.625 204.128 105.894 204.601 106.372C205.075 106.851 205.341 107.499 205.341 108.176V109.596C205.341 110.072 205.209 110.538 204.96 110.942C204.71 111.347 204.355 111.672 203.932 111.883V112.932C203.933 113.108 204.003 113.277 204.126 113.401C204.25 113.525 204.417 113.595 204.592 113.595H204.88C207.579 113.595 209.787 115.533 209.787 119.49" stroke="#006B99" stroke-width="3.23435" stroke-linecap="round" stroke-linejoin="round"/>
<path d="M195.459 136.327C195.416 135.57 195.53 134.811 195.794 134.1C196.057 133.389 196.464 132.742 196.99 132.199C197.515 131.656 198.146 131.23 198.844 130.947C199.541 130.665 200.289 130.532 201.04 130.557C201.215 130.557 201.383 130.487 201.507 130.362C201.63 130.238 201.699 130.07 201.7 129.894V128.845C201.277 128.635 200.921 128.309 200.672 127.905C200.423 127.501 200.291 127.035 200.291 126.558V125.139C200.291 124.462 200.557 123.813 201.03 123.335C201.504 122.857 202.146 122.588 202.816 122.588C203.486 122.588 204.128 122.857 204.601 123.335C205.075 123.813 205.341 124.462 205.341 125.139V126.561C205.341 127.037 205.209 127.503 204.96 127.908C204.711 128.312 204.355 128.638 203.932 128.848V129.892C203.933 130.068 204.003 130.236 204.126 130.361C204.25 130.485 204.417 130.555 204.592 130.555H204.881C207.579 130.555 209.787 132.493 209.787 136.451" stroke="#006B99" stroke-width="3.23435" stroke-linecap="round" stroke-linejoin="round"/>
<path d="M195.459 153.605C195.416 152.847 195.53 152.088 195.793 151.377C196.057 150.666 196.464 150.019 196.989 149.476C197.515 148.932 198.146 148.506 198.844 148.224C199.541 147.941 200.289 147.808 201.04 147.834C201.126 147.834 201.212 147.817 201.292 147.784C201.372 147.751 201.445 147.702 201.506 147.641C201.567 147.579 201.616 147.506 201.649 147.425C201.682 147.345 201.699 147.259 201.7 147.172V146.122C201.277 145.911 200.921 145.586 200.672 145.182C200.423 144.778 200.291 144.311 200.291 143.835V142.416C200.291 141.739 200.557 141.091 201.03 140.612C201.504 140.134 202.146 139.865 202.816 139.865C203.486 139.865 204.128 140.134 204.602 140.612C205.075 141.091 205.341 141.739 205.341 142.416V143.835C205.341 144.311 205.209 144.778 204.96 145.182C204.711 145.586 204.355 145.911 203.932 146.122V147.174C203.933 147.35 204.003 147.519 204.126 147.643C204.25 147.767 204.418 147.837 204.592 147.837H204.88C207.286 147.837 209.308 149.382 209.713 152.53" stroke="#006B99" stroke-width="3.23435" stroke-linecap="round" stroke-linejoin="round"/>
<path d="M195.396 99.4655V88.1345V83.3512H262.079V88.1345V128.286H213.507" stroke="#006B99" stroke-width="3.23435" stroke-linecap="round" stroke-linejoin="round"/>
<path d="M195.396 88.1345H262.079" stroke="#006B99" stroke-width="3.23435" stroke-linecap="round" stroke-linejoin="round"/>
<path d="M199.703 85.9395C199.704 86.1605 199.639 86.3766 199.518 86.5605C199.397 86.7443 199.225 86.8878 199.022 86.9727C198.82 87.0576 198.598 87.0798 198.384 87.0372C198.169 86.9942 197.972 86.8882 197.817 86.7321C197.662 86.576 197.556 86.377 197.514 86.1605C197.471 85.9436 197.492 85.7189 197.576 85.5147C197.659 85.3104 197.801 85.1358 197.983 85.0131C198.164 84.89 198.378 84.8244 198.597 84.824C198.742 84.824 198.886 84.8526 199.02 84.9086C199.154 84.9645 199.276 85.0465 199.379 85.1503C199.482 85.2537 199.563 85.3768 199.619 85.5121C199.675 85.6474 199.703 85.7927 199.703 85.9395Z" stroke="#006B99" stroke-width="3.23435" stroke-linecap="round" stroke-linejoin="round"/>
<path d="M204.054 85.9395C204.054 86.1604 203.989 86.3762 203.868 86.5604C203.747 86.7443 203.575 86.8878 203.372 86.9727C203.171 87.0572 202.948 87.0798 202.734 87.0372C202.519 86.9942 202.322 86.8882 202.167 86.7325C202.012 86.5764 201.907 86.3773 201.864 86.1608C201.821 85.9443 201.842 85.7197 201.925 85.5154C202.009 85.3111 202.15 85.1365 202.332 85.0134C202.514 84.8904 202.727 84.8244 202.946 84.824C203.091 84.8236 203.235 84.8522 203.369 84.9082C203.504 84.9641 203.626 85.0461 203.729 85.1499C203.832 85.2533 203.913 85.3764 203.969 85.5121C204.025 85.6474 204.054 85.7927 204.054 85.9395Z" stroke="#006B99" stroke-width="3.23435" stroke-linecap="round" stroke-linejoin="round"/>
<path d="M208.406 85.9395C208.407 86.1604 208.342 86.3766 208.221 86.5604C208.1 86.7443 207.927 86.8878 207.725 86.9727C207.523 87.0576 207.301 87.0798 207.086 87.0372C206.872 86.9942 206.674 86.8882 206.52 86.7321C206.365 86.576 206.259 86.3769 206.216 86.1604C206.173 85.9436 206.195 85.7189 206.279 85.5147C206.362 85.3104 206.504 85.1358 206.685 85.0131C206.867 84.89 207.081 84.8244 207.3 84.824C207.445 84.8236 207.589 84.8522 207.723 84.9082C207.857 84.9641 207.979 85.0461 208.082 85.1499C208.185 85.2533 208.266 85.3764 208.322 85.5121C208.378 85.6474 208.406 85.7927 208.406 85.9395Z" stroke="#006B99" stroke-width="3.23435" stroke-linecap="round" stroke-linejoin="round"/>
<path d="M136.665 115.408H132.455H127.582H104.606H95.576H92.7833V56.4086V51.6245H184.342V56.4086V99.4655" stroke="#006B99" stroke-width="3.23435" stroke-linecap="round" stroke-linejoin="round"/>
<path d="M92.7833 56.409H125.716H127.582H184.342" stroke="#006B99" stroke-width="3.23435" stroke-linecap="round" stroke-linejoin="round"/>
<path d="M97.0873 54.2136C97.0877 54.4345 97.023 54.6507 96.902 54.8345C96.7807 55.0184 96.608 55.1619 96.4061 55.2468C96.2042 55.3317 95.982 55.3539 95.7671 55.3113C95.5527 55.2683 95.3556 55.1622 95.2006 55.0062C95.0457 54.8501 94.9403 54.651 94.8974 54.4345C94.8545 54.2177 94.8759 53.993 94.9595 53.7887C95.0431 53.5845 95.1847 53.4099 95.3663 53.2872C95.5482 53.1641 95.762 53.0985 95.9805 53.0981C96.2738 53.0981 96.5548 53.2152 96.7626 53.4243C96.9701 53.6334 97.0869 53.9174 97.0873 54.2136Z" stroke="#006B99" stroke-width="3.23435" stroke-linecap="round" stroke-linejoin="round"/>
<path d="M101.441 54.2136C101.441 54.4345 101.377 54.6503 101.255 54.8342C101.134 55.0184 100.962 55.1619 100.76 55.2464C100.558 55.3313 100.336 55.3539 100.121 55.3113C99.9066 55.2683 99.7092 55.1622 99.5542 55.0065C99.3996 54.8505 99.2939 54.6514 99.251 54.4349C99.2077 54.2184 99.2292 53.9937 99.3127 53.7895C99.3959 53.5852 99.5376 53.4106 99.7191 53.2875C99.9007 53.1645 100.114 53.0985 100.333 53.0981C100.478 53.0981 100.622 53.1266 100.756 53.1826C100.891 53.2386 101.013 53.3205 101.115 53.424C101.219 53.5278 101.3 53.6508 101.356 53.7861C101.412 53.9215 101.441 54.0668 101.441 54.2136Z" stroke="#006B99" stroke-width="3.23435" stroke-linecap="round" stroke-linejoin="round"/>
<path d="M105.793 54.2136C105.794 54.4345 105.729 54.6507 105.608 54.8345C105.487 55.0184 105.314 55.1619 105.112 55.2468C104.91 55.3317 104.688 55.3539 104.474 55.3113C104.259 55.2683 104.062 55.1622 103.907 55.0062C103.752 54.8501 103.646 54.651 103.603 54.4345C103.561 54.2177 103.582 53.993 103.666 53.7887C103.749 53.5845 103.891 53.4099 104.073 53.2872C104.254 53.1641 104.468 53.0985 104.687 53.0981C104.98 53.0981 105.261 53.2152 105.469 53.4243C105.676 53.6334 105.793 53.9174 105.793 54.2136Z" stroke="#006B99" stroke-width="3.23435" stroke-linecap="round" stroke-linejoin="round"/>
<path d="M166.867 176.687L139.494 157.107V158.187C139.494 158.922 139.668 159.646 140.003 160.299C140.337 160.952 140.822 161.514 141.416 161.938L173.939 185.202C175.294 186.169 176.912 186.689 178.572 186.691H245.5C245.931 186.691 246.358 186.605 246.757 186.439C247.155 186.272 247.517 186.028 247.823 185.72C248.128 185.412 248.369 185.046 248.534 184.644C248.699 184.241 248.784 183.809 248.784 183.374V183.235" stroke="#006B99" stroke-width="3.23435" stroke-linecap="round" stroke-linejoin="round"/>
<path d="M211.476 156.548L248.78 183.232H176.018" stroke="#006B99" stroke-width="3.23435" stroke-linecap="round" stroke-linejoin="round"/>
<path d="M205.897 96.2773H251.576" stroke="#006B99" stroke-width="3.23435" stroke-linecap="round" stroke-linejoin="round"/>
<path d="M213.982 106.643H251.575" stroke="#006B99" stroke-width="3.23435" stroke-linecap="round" stroke-linejoin="round"/>
<path d="M213.982 117.009H251.575" stroke="#006B99" stroke-width="3.23435" stroke-linecap="round" stroke-linejoin="round"/>
<path d="M119.385 143.93H134.509" stroke="#006B99" stroke-width="3.23435" stroke-linecap="round" stroke-linejoin="round"/>
<path d="M215.779 143.93H237.122" stroke="#006B99" stroke-width="3.23435" stroke-linecap="round" stroke-linejoin="round"/>
<path d="M166.868 176.686L176.019 183.232V186.188" stroke="#006B99" stroke-width="3.23435" stroke-linecap="round" stroke-linejoin="round"/>
<path d="M193.12 180.72L186.04 175.656H214.439" stroke="#F7CEDC" stroke-width="3.23435" stroke-linecap="round" stroke-linejoin="round"/>
<path d="M214.511 175.656L221.591 180.72H193.192" stroke="#006B99" stroke-width="3.23435" stroke-linecap="round" stroke-linejoin="round"/>
<path d="M228.727 173.193H209.156H169.647L156.245 163.606L151.127 159.943H172.894H210.207L222.977 169.081L228.727 173.193Z" stroke="#006B99" stroke-width="3.23435" stroke-linecap="round" stroke-linejoin="round"/>
<path d="M156.245 163.606H178.011H207.306" stroke="#006B99" stroke-width="3.23435" stroke-linecap="round" stroke-linejoin="round"/>
<path d="M171.793 169.261H203.82H222.853" stroke="#006B99" stroke-width="3.23435" stroke-linecap="round" stroke-linejoin="round"/>
<path d="M172.894 159.943L178.012 163.606L183.347 167.423" stroke="#006B99" stroke-width="3.23435" stroke-linecap="round" stroke-linejoin="round"/>
<path d="M198.702 165.598L203.82 169.26L209.156 173.077" stroke="#006B99" stroke-width="3.23435" stroke-linecap="round" stroke-linejoin="round"/>
<path d="M182.48 132.862C183.329 132.862 184.169 133.031 184.953 133.359C185.737 133.688 186.45 134.169 187.05 134.775C187.65 135.382 188.126 136.102 188.45 136.894C188.775 137.686 188.942 138.535 188.941 139.392C188.943 139.413 188.943 139.434 188.941 139.455C188.941 141.186 188.261 142.846 187.05 144.07C185.838 145.294 184.195 145.981 182.481 145.981C180.768 145.981 179.125 145.294 177.914 144.07C176.702 142.846 176.022 141.186 176.022 139.455C176.02 139.434 176.02 139.413 176.022 139.392C176.021 137.661 176.701 136.001 177.912 134.776C179.123 133.552 180.766 132.863 182.48 132.862Z" stroke="#006B99" stroke-width="3.23435" stroke-linecap="round" stroke-linejoin="round"/>
<path d="M182.48 128.724V132.863V139.456V145.921V149.562" stroke="#006B99" stroke-width="3.23435" stroke-linecap="round" stroke-linejoin="round"/>
<path d="M192.794 139.457H188.938H182.48H176.022H172.165" stroke="#006B99" stroke-width="3.23435" stroke-linecap="round" stroke-linejoin="round"/>
<path d="M158.957 79.1039C158.996 77.3997 159.694 75.7785 160.902 74.5874C162.109 73.3963 163.729 72.7294 165.417 72.7294C167.104 72.7294 168.724 73.3963 169.932 74.5874C171.139 75.7785 171.837 77.3997 171.877 79.1039C171.878 79.1261 171.878 79.1484 171.877 79.1706C171.861 80.7083 171.309 82.1912 170.316 83.3578C169.325 84.5241 167.957 85.2997 166.454 85.5473C164.952 85.7946 163.411 85.4984 162.104 84.7106C160.796 83.9228 159.806 82.6939 159.308 81.2407" stroke="#006B99" stroke-width="3.23435" stroke-linecap="round" stroke-linejoin="round"/>
<path d="M165.419 68.4361V72.5767V79.1702V85.6314V89.2752" stroke="#006B99" stroke-width="3.23435" stroke-linecap="round" stroke-linejoin="round"/>
<path d="M159.277 79.1702H158.957H155.104" stroke="#006B99" stroke-width="3.23435" stroke-linecap="round" stroke-linejoin="round"/>
<path d="M175.732 79.1702H171.877H165.418H161.434" stroke="#006B99" stroke-width="3.23435" stroke-linecap="round" stroke-linejoin="round"/>
<path d="M158.782 113.692V117.911L169.009 116.698L181.186 115.254V120.631V122.827L179.034 121.743L169.009 116.698L161.123 112.728L158.782 111.55V113.692Z" stroke="#006B99" stroke-width="3.23435" stroke-linecap="round" stroke-linejoin="round"/>
<path d="M158.782 113.689C158.782 113.689 160.666 114.161 161.123 112.725" stroke="#006B99" stroke-width="3.23435" stroke-linecap="round" stroke-linejoin="round"/>
<path d="M179.032 121.743C179.253 121.374 179.572 121.075 179.952 120.879C180.331 120.683 180.758 120.597 181.183 120.631" stroke="#006B99" stroke-width="3.23435" stroke-linecap="round" stroke-linejoin="round"/>
<path d="M135.344 61.4381V65.6595L145.574 64.4443L157.747 62.9988V68.3772V70.5726L155.595 69.4886L145.574 64.4443L137.685 60.4739L135.344 59.2957V61.4381Z" stroke="#006B99" stroke-width="3.23435" stroke-linecap="round" stroke-linejoin="round"/>
<path d="M135.344 61.4377C135.344 61.4377 137.231 61.9086 137.685 60.4735" stroke="#006B99" stroke-width="3.23435" stroke-linecap="round" stroke-linejoin="round"/>
<path d="M155.598 69.493C155.819 69.1246 156.138 68.8258 156.518 68.6293C156.898 68.4332 157.324 68.3472 157.75 68.3816" stroke="#006B99" stroke-width="3.23435" stroke-linecap="round" stroke-linejoin="round"/>
<path d="M172.152 136.381H164.572V133.24V128.723H169.044H172.152V136.381Z" stroke="#006B99" stroke-width="3.23435" stroke-linecap="round" stroke-linejoin="round"/>
<path d="M169.044 133.24H164.572H161.463V125.582H169.044V128.723V133.24Z" stroke="#006B99" stroke-width="3.23435" stroke-linecap="round" stroke-linejoin="round"/>
<path d="M161.463 125.582L164.572 128.723" stroke="#006B99" stroke-width="3.23435" stroke-linecap="round" stroke-linejoin="round"/>
<path d="M169.044 125.582L172.153 128.723" stroke="#006B99" stroke-width="3.23435" stroke-linecap="round" stroke-linejoin="round"/>
<path d="M169.044 133.24L172.153 136.381" stroke="#006B99" stroke-width="3.23435" stroke-linecap="round" stroke-linejoin="round"/>
<path d="M161.463 133.24L164.572 136.381" stroke="#006B99" stroke-width="3.23435" stroke-linecap="round" stroke-linejoin="round"/>
<path d="M144.174 87.0016H136.593V83.8601V79.3433H141.065H144.174V87.0016Z" stroke="#006B99" stroke-width="3.23435" stroke-linecap="round" stroke-linejoin="round"/>
<path d="M141.065 83.8598H136.593H133.484V76.2015H141.065V79.343V83.8598Z" stroke="#006B99" stroke-width="3.23435" stroke-linecap="round" stroke-linejoin="round"/>
<path d="M133.484 76.2015L136.593 79.343" stroke="#006B99" stroke-width="3.23435" stroke-linecap="round" stroke-linejoin="round"/>
<path d="M141.065 76.2015L144.174 79.343" stroke="#006B99" stroke-width="3.23435" stroke-linecap="round" stroke-linejoin="round"/>
<path d="M141.065 83.8598L144.174 87.0013" stroke="#006B99" stroke-width="3.23435" stroke-linecap="round" stroke-linejoin="round"/>
<path d="M133.484 83.8598L136.593 87.0013" stroke="#006B99" stroke-width="3.23435" stroke-linecap="round" stroke-linejoin="round"/>
<path d="M161.152 146.179C161.152 146.179 159.88 146.701 159.816 147.612C159.751 148.522 160.913 148.525 161.429 148.004C161.448 147.382 161.384 146.761 161.237 146.157C161.184 145.949 161.108 145.747 161.009 145.557C160.528 144.646 159.719 144.774 159.43 145.394" stroke="#006B99" stroke-width="3.23435" stroke-linecap="round" stroke-linejoin="round"/>
<path d="M185.754 108.469C185.754 108.469 184.482 108.99 184.418 109.904C184.354 110.819 185.516 110.819 186.032 110.297C186.051 109.674 185.986 109.052 185.839 108.447C185.787 108.24 185.711 108.039 185.612 107.85C185.13 106.936 184.322 107.068 184.032 107.686" stroke="#006B99" stroke-width="3.23435" stroke-linecap="round" stroke-linejoin="round"/>
<path d="M163.017 145.921H164.572" stroke="#006B99" stroke-width="3.23435" stroke-linecap="round" stroke-linejoin="round"/>
<path d="M163.017 147.178H164.572" stroke="#006B99" stroke-width="3.23435" stroke-linecap="round" stroke-linejoin="round"/>
<path d="M166.023 145.528C166.1 144.538 168.439 144.52 167.989 146.235C167.68 147.401 166.069 148.356 166.069 148.356H168.707" stroke="#006B99" stroke-width="3.23435" stroke-linecap="round" stroke-linejoin="round"/>
<path d="M176.777 107.767C176.857 106.782 179.196 106.759 178.737 108.471C178.43 109.641 176.822 110.595 176.822 110.595H179.456" stroke="#006B99" stroke-width="3.23435" stroke-linecap="round" stroke-linejoin="round"/>
<path d="M171.388 106.499C171.441 105.836 173.012 105.823 172.707 106.974C172.501 107.752 171.422 108.396 171.422 108.396H173.188" stroke="#006B99" stroke-width="3.23435" stroke-linecap="round" stroke-linejoin="round"/>
<path d="M170.424 147.781C171.494 149.031 173.127 148.242 172.573 146.971C172.019 145.699 170.524 146.609 170.424 147.781Z" stroke="#006B99" stroke-width="3.23435" stroke-linecap="round" stroke-linejoin="round"/>
<path d="M171.407 144.329C170.766 145.017 169.358 146.528 170.427 147.781" stroke="#006B99" stroke-width="3.23435" stroke-linecap="round" stroke-linejoin="round"/>
<path d="M181.55 107.51V108.513V109.514" stroke="#006B99" stroke-width="3.23435" stroke-linecap="round" stroke-linejoin="round"/>
<path d="M180.443 108.512H181.55H182.576" stroke="#006B99" stroke-width="3.23435" stroke-linecap="round" stroke-linejoin="round"/>
<path d="M175.9 106.015C174.983 106.297 174.221 108.06 174.507 109.3C174.583 109.829 174.794 110.329 175.119 110.751C175.443 111.173 175.87 111.503 176.358 111.709" stroke="#006B99" stroke-width="3.23435" stroke-linecap="round" stroke-linejoin="round"/>
<path d="M186.721 106.015C187.639 106.297 188.4 108.06 188.114 109.3C188.037 109.828 187.826 110.327 187.502 110.749C187.179 111.171 186.752 111.501 186.264 111.707" stroke="#006B99" stroke-width="3.23435" stroke-linecap="round" stroke-linejoin="round"/>
<path d="M125.716 56.409V91.1258" stroke="#006B99" stroke-width="3.23435" stroke-linecap="round" stroke-linejoin="round"/>
<path d="M127.582 56.409V91.7542" stroke="#006B99" stroke-width="3.23435" stroke-linecap="round" stroke-linejoin="round"/>
<path d="M104.879 104.887V106.476L95.576 106.103L94.5532 106.063C94.5532 106.063 94.6219 98.7363 96.5367 95.4232C97.2526 94.3284 98.2533 93.4539 99.4289 92.8964C101.151 92.0415 102.987 91.4435 104.879 91.1221C107.62 92.7874 110.779 93.6163 113.975 93.5095C119.072 93.233 120.961 91.1221 120.961 91.1221C122.536 90.9438 124.127 90.9913 125.689 91.2634C126.326 91.3801 126.947 91.5751 127.538 91.8443C127.989 92.0482 128.404 92.324 128.767 92.6613C130.539 94.5197 132.094 96.5779 133.4 98.7959L132.452 99.4617L128.421 102.293" stroke="#006B99" stroke-width="3.23435" stroke-linecap="round" stroke-linejoin="round"/>
<path d="M95.576 106.103V115.408" stroke="#006B99" stroke-width="3.23435" stroke-linecap="round" stroke-linejoin="round"/>
<path d="M104.88 106.477L104.606 115.408" stroke="#006B99" stroke-width="3.23435" stroke-linecap="round" stroke-linejoin="round"/>
<path d="M127.05 100.333C127.05 100.333 127.691 101.137 128.421 102.293C129.376 103.81 130.48 105.93 130.483 107.63C130.462 109.093 130.157 110.538 129.585 111.883C129.081 113.113 128.406 114.265 127.582 115.303" stroke="#006B99" stroke-width="3.23435" stroke-linecap="round" stroke-linejoin="round"/>
<path d="M119.989 106.103C119.989 106.103 120.225 110.557 118.58 112.558" stroke="#006B99" stroke-width="3.23435" stroke-linecap="round" stroke-linejoin="round"/>
<path d="M119.395 78.9066C119.112 78.7825 118.811 78.7057 118.504 78.6798C118.215 78.6186 117.915 78.6371 117.636 78.7339" stroke="#006B99" stroke-width="3.23435" stroke-linecap="round" stroke-linejoin="round"/>
<path d="M112.856 78.5841C113.203 78.4974 113.556 78.4343 113.912 78.3954C114.202 78.3383 114.502 78.3613 114.78 78.4618" stroke="#006B99" stroke-width="3.23435" stroke-linecap="round" stroke-linejoin="round"/>
<path d="M117.231 77.7055C117.111 77.9609 117.05 78.2404 117.053 78.5229C117.055 78.8054 117.122 79.0835 117.246 79.3367C117.43 79.9587 118.018 80.6212 117.914 81.2088C117.811 81.7967 116.739 82.0314 116.111 81.8586" stroke="#006B99" stroke-width="3.23435" stroke-linecap="round" stroke-linejoin="round"/>
<path d="M114.146 87.62C113.203 87.3115 112.309 86.867 111.491 86.3002" stroke="#006B99" stroke-width="3.23435" stroke-linecap="round" stroke-linejoin="round"/>
<path d="M120.079 82.7384C119.803 83.3323 119.51 83.7968 119.335 84.2242C119.037 85.2515 118.585 86.2261 117.993 87.1136C117.817 87.3238 117.606 87.5006 117.369 87.6359C117.146 87.7634 116.902 87.8472 116.648 87.8832C115.951 87.9655 115.246 87.9154 114.568 87.7356C114.437 87.7041 114.3 87.67 114.173 87.6296" stroke="#006B99" stroke-width="3.23435" stroke-linecap="round" stroke-linejoin="round"/>
<path d="M120.439 77.747C120.358 77.9832 120.287 78.1396 120.287 78.1396C120.67 78.9697 120.812 79.892 120.698 80.8003C120.578 81.472 120.368 82.1241 120.074 82.7384" stroke="#006B99" stroke-width="3.23435" stroke-linecap="round" stroke-linejoin="round"/>
<path d="M112.072 77.4582C112.856 76.9641 113.776 76.7379 114.697 76.8139C115.704 76.9867 115.76 77.3385 115.766 77.3541" stroke="#006B99" stroke-width="3.23435" stroke-linecap="round" stroke-linejoin="round"/>
<path d="M120.11 76.9144C119.815 76.8855 119.517 76.9037 119.227 76.9674C118.794 77.0505 118.369 77.1684 117.955 77.3196" stroke="#006B99" stroke-width="3.23435" stroke-linecap="round" stroke-linejoin="round"/>
<path d="M118.767 83.0438C118.668 83.115 118.563 83.1773 118.453 83.2292C118.023 83.4112 117.562 83.5087 117.095 83.5154C116.121 83.4731 115.155 83.3223 114.215 83.0653C114.012 83.0149 113.873 82.9753 113.826 82.9645" stroke="#006B99" stroke-width="3.23435" stroke-linecap="round" stroke-linejoin="round"/>
<path d="M113.808 82.9615C113.808 82.9615 113.861 83.0057 113.945 83.0805C114.39 83.465 114.86 83.8198 115.351 84.1427C115.614 84.3376 115.918 84.4685 116.24 84.5252C116.561 84.582 116.891 84.5627 117.204 84.4693C117.79 84.073 118.316 83.5936 118.768 83.0464" stroke="#006B99" stroke-width="3.23435" stroke-linecap="round" stroke-linejoin="round"/>
<path d="M117.402 87.6859L117.461 88.7859L117.47 88.9586L117.527 90.0322" stroke="#006B99" stroke-width="3.23435" stroke-linecap="round" stroke-linejoin="round"/>
<path d="M120.961 91.1258L117.526 90.0322" stroke="#006B99" stroke-width="3.23435" stroke-linecap="round" stroke-linejoin="round"/>
<path d="M109.314 86.3165L109.208 89.3193L104.879 91.1258" stroke="#006B99" stroke-width="3.23435" stroke-linecap="round" stroke-linejoin="round"/>
<path d="M107.317 79.0416C107.317 79.0416 106.058 77.747 105.275 78.6175C105.172 78.7346 105.088 78.867 105.025 79.0101C104.155 80.8948 106.014 82.9645 107.431 83.4802" stroke="#006B99" stroke-width="3.23435" stroke-linecap="round" stroke-linejoin="round"/>
<path d="M105.275 78.6175V78.6245" stroke="#006B99" stroke-width="3.23435" stroke-linecap="round" stroke-linejoin="round"/>
<path d="M110.066 85.5907C110.249 85.3226 110.36 85.0109 110.387 84.6861C110.414 84.3617 110.357 84.0355 110.221 83.74C110.131 83.5339 109.999 83.3493 109.833 83.1984C109.667 83.0472 109.471 82.9334 109.259 82.864C109.046 82.7947 108.822 82.7717 108.6 82.7958C108.378 82.8203 108.163 82.8918 107.971 83.0057C107.749 83.105 107.562 83.2707 107.436 83.4798C107.306 83.6933 107.226 83.9336 107.2 84.183C107.173 84.4322 107.203 84.6839 107.286 84.92C107.402 85.3148 107.652 85.6559 107.993 85.8828C108.332 86.11 108.741 86.2086 109.146 86.1616C109.158 86.1616 109.171 86.1616 109.183 86.1616C109.362 86.1352 109.533 86.0707 109.686 85.9725C109.838 85.8739 109.968 85.7438 110.066 85.5907Z" stroke="#006B99" stroke-width="3.23435" stroke-linecap="round" stroke-linejoin="round"/>
<path d="M118.841 85.905C119.185 86.0774 119.572 86.14 119.951 86.0852C121.02 85.9499 121.583 84.4648 121.078 83.446C120.926 83.122 120.688 82.8477 120.389 82.6546" stroke="#006B99" stroke-width="3.23435" stroke-linecap="round" stroke-linejoin="round"/>
<path d="M113.941 83.0779C113.941 83.0779 114.044 83.0716 114.209 83.0653C114.893 83.0246 116.671 82.9363 116.985 82.9645C117.374 82.996 118.447 83.2344 118.447 83.2344" stroke="#006B99" stroke-width="3.23435" stroke-linecap="round" stroke-linejoin="round"/>
<path d="M114.146 87.62L114.177 87.63C114.451 87.7334 116.509 88.4967 117.445 88.7855" stroke="#006B99" stroke-width="3.23435" stroke-linecap="round" stroke-linejoin="round"/>
<path d="M112.155 72.9533C112.143 72.8432 112.115 72.0736 114.026 72.388C115.427 72.6953 116.734 73.3363 117.839 74.2575L117.848 74.2664" stroke="#006B99" stroke-width="3.23435" stroke-linecap="round" stroke-linejoin="round"/>
<path d="M108.397 70.233C108.397 70.233 111.717 70.0413 112.156 72.9529C112.157 72.9585 112.157 72.964 112.156 72.9692" stroke="#006B99" stroke-width="3.23435" stroke-linecap="round" stroke-linejoin="round"/>
<path d="M107.393 79.0227C111.491 80.5834 111.954 74.722 112.156 72.9692C112.156 72.9692 116.166 73.4085 117.467 74.0558C117.592 74.1188 117.716 74.1882 117.837 74.2575C119.11 75.0126 120.05 76.229 120.468 77.6592C120.468 77.6592 122.06 76.0073 119.977 71.7181C119.207 70.2493 117.992 69.0674 116.51 68.3457C115.028 67.6242 113.356 67.4003 111.739 67.7073C111.574 67.7436 111.403 67.7855 111.226 67.8322C109.68 68.1851 108.235 68.8914 107.001 69.8964C104.566 72.6697 104.755 76.0306 104.6 76.4896C103.123 80.8903 97.8125 88.3714 99.4259 92.899" stroke="#006B99" stroke-width="3.23435" stroke-linecap="round" stroke-linejoin="round"/>
<path d="M150.829 88.49C151.388 88.2754 151.918 87.9892 152.405 87.6385C152.546 87.5291 152.665 87.3938 152.756 87.24C152.811 87.1551 152.846 87.0591 152.857 86.9586C152.869 86.8581 152.857 86.7562 152.823 86.6613C152.789 86.566 152.733 86.4804 152.661 86.4107C152.588 86.341 152.501 86.2891 152.405 86.2598C152.267 86.2213 152.124 86.2064 151.982 86.2157C150.666 86.4303 149.396 86.8656 148.223 87.5036C147.929 87.65 147.681 87.8776 147.51 88.1597L144.844 93.2904L141.973 99.4314" stroke="#006B99" stroke-width="3.23435" stroke-linecap="round" stroke-linejoin="round"/>
<path d="M149.756 88.8989C149.756 88.8989 150.001 88.817 150.349 88.6817C150.493 88.6279 150.654 88.5619 150.825 88.493" stroke="#006B99" stroke-width="3.23435" stroke-linecap="round" stroke-linejoin="round"/>
<path d="M132.455 99.4655L136.665 105.336" stroke="#006B99" stroke-width="3.23435" stroke-linecap="round" stroke-linejoin="round"/>
<path d="M129.585 111.883L132.455 115.303" stroke="#006B99" stroke-width="3.23435" stroke-linecap="round" stroke-linejoin="round"/>
<path d="M148.851 99.4314L150.188 96.6888C150.93 96.6677 151.659 96.4786 152.321 96.1361C152.982 95.7935 153.559 95.3057 154.009 94.7084C155.886 92.5598 156.331 91.061 155.542 90.5119C154.752 89.9629 153.116 90.7129 152.647 91.6111C152.177 92.5093 152.538 93.7346 154.817 92.0133" stroke="#006B99" stroke-width="3.23435" stroke-linecap="round" stroke-linejoin="round"/>
<path d="M155.543 90.5104C155.543 90.5104 156.578 89.5614 156.242 88.6202C155.906 87.6785 154.125 88.133 153.008 88.8092C152.522 89.1069 152.097 89.4962 151.755 89.9558C151.257 90.6624 151.221 91.4131 152.647 91.6074" stroke="#006B99" stroke-width="3.23435" stroke-linecap="round" stroke-linejoin="round"/>
<path d="M156.241 88.6216C156.241 88.6216 156.391 87.6678 155.122 86.9412C154.273 86.4544 152.858 87.2555 152.858 87.2555" stroke="#006B99" stroke-width="3.23435" stroke-linecap="round" stroke-linejoin="round"/>
<path d="M150.829 88.49C150.785 88.5593 150.161 89.521 151.211 89.7846C151.338 89.8172 151.467 89.8368 151.597 89.8439" stroke="#006B99" stroke-width="3.23435" stroke-linecap="round" stroke-linejoin="round"/>
<path d="M155.496 85.3112L159.308 81.2399L161.335 79.0794L163.295 76.9875C163.42 76.8518 163.486 76.6712 163.48 76.4859C163.473 76.3001 163.394 76.1252 163.259 75.9988C163.124 75.8727 162.946 75.8056 162.762 75.8123C162.579 75.819 162.405 75.8994 162.28 76.0355L159.34 79.2236L154.165 84.8303" stroke="#006B99" stroke-width="3.23435" stroke-linecap="round" stroke-linejoin="round"/>
<path d="M150.375 88.7503L145.935 93.494C145.869 93.5663 145.818 93.6519 145.787 93.7453C145.757 93.8387 145.746 93.9377 145.755 94.0356C145.765 94.1335 145.795 94.2284 145.844 94.3136C145.892 94.3993 145.958 94.473 146.037 94.5309C146.156 94.6165 146.298 94.6625 146.445 94.6621C146.54 94.6621 146.634 94.6424 146.721 94.6039C146.808 94.5657 146.886 94.5094 146.952 94.4389L151.097 90.0103" stroke="#006B99" stroke-width="3.23435" stroke-linecap="round" stroke-linejoin="round"/>
<path d="M155.123 86.9412C155.123 86.9412 155.854 86.0211 155.272 85.3426C155.185 85.2455 155.084 85.1621 154.973 85.0939C154.73 84.9386 154.45 84.85 154.162 84.8366C153.714 84.8633 153.279 85.0034 152.899 85.2437C152.518 85.4842 152.203 85.8175 151.982 86.2127" stroke="#006B99" stroke-width="3.23435" stroke-linecap="round" stroke-linejoin="round"/>
</g>
<defs>
<clipPath id="clip0_1303_407">
<rect width="355" height="238" fill="white"/>
</clipPath>
</defs>
</svg>
