<svg width="355" height="238" viewBox="0 0 355 238" fill="none" xmlns="http://www.w3.org/2000/svg">
<g clip-path="url(#clip0_1303_668)">
<path d="M355 0H0V238H355V0Z" fill="#F7CEDC"/>
<path d="M252.707 117.427H249.965V149.32H252.707V117.427Z" fill="#FFCEB6"/>
<path d="M176.032 152.531L175.157 151.636C170.781 151.292 164.131 149.531 159.919 144.318C159.673 144.014 159.448 143.694 159.244 143.36C158.866 142.751 158.601 142.079 158.46 141.376C157.744 137.614 161.623 134.877 163.45 134.429C165.748 133.872 169.703 134.596 171.297 134.935C171.734 135.029 171.995 135.091 171.995 135.091C172.28 135.113 172.566 135.113 172.851 135.091C173.047 135.08 173.257 135.065 173.483 135.048C173.555 135.048 173.628 135.041 173.704 135.033C173.748 135.033 173.79 135.033 173.835 135.026C174.703 134.965 175.573 134.976 176.439 135.059C176.686 135.084 176.944 135.121 177.209 135.164C177.354 135.19 177.5 135.219 177.648 135.25C177.768 135.276 177.888 135.305 178.011 135.336C178.102 135.358 178.193 135.383 178.284 135.409C178.47 135.459 178.655 135.514 178.839 135.576C178.848 135.58 178.856 135.582 178.865 135.584C178.951 135.612 179.036 135.641 179.122 135.675V135.671C180.454 136.165 181.688 136.892 182.768 137.816C183.774 138.668 184.881 139.557 186.033 140.441C187.574 141.621 189.192 142.797 190.776 143.867C190.776 143.867 191.35 143.977 192.207 144.086L192.218 143.995V133.4H213.216C216.641 140.695 222.006 153.931 225.808 164.548C229.763 175.587 242.474 194.868 245.053 201.312C248.122 208.973 248.122 213.241 248.122 213.241H202.958C202.978 211.558 202.8 209.877 202.428 208.235L204.074 200.854C202.796 200.887 200.783 200.854 200.783 200.854V200.861C200.551 200.81 199.399 200.523 194.705 199.296C187.543 197.424 172.013 177.942 172.013 177.942C170.445 177.206 167.695 173.77 166.068 171.611C165.256 170.534 164.762 169.251 164.641 167.907H164.615C164.615 167.907 156.455 166.963 152.071 165.563C152.071 165.563 145.087 163.728 143.14 162.887C143.14 162.887 130.938 158.347 127.854 156.559C124.771 154.772 126.228 147.279 132.401 149.07C136.037 150.122 139.24 151.189 139.389 151.24C140.78 152.242 142.449 152.78 144.162 152.776H153.192C153.192 152.776 163.717 155.074 165.696 155.514L165.953 155.529C166.161 154.571 166.497 153.645 166.951 152.776H175.849L176.032 152.531Z" fill="#FFCEB6"/>
<path d="M245.621 127.625C245.647 127.589 245.671 127.553 245.697 127.519C245.605 128.431 245.262 129.3 244.706 130.028C244.331 130.567 243.79 130.969 243.167 131.174C242.544 131.378 241.871 131.374 241.25 131.161L239.11 133.885L236.713 130.834L238.853 128.111C238.674 127.357 238.66 126.574 238.814 125.815C238.968 125.056 239.284 124.339 239.743 123.716C240.224 123.066 240.927 122.619 241.718 122.459C241.687 122.488 241.658 122.52 241.633 122.554C241.096 123.291 240.807 124.179 240.807 125.09C240.807 126.002 241.096 126.89 241.633 127.626C241.856 127.948 242.154 128.212 242.502 128.394C242.849 128.577 243.235 128.672 243.627 128.672C244.019 128.672 244.405 128.576 244.753 128.394C245.1 128.212 245.398 127.948 245.621 127.625Z" fill="#CCEFF6"/>
<path d="M243.703 138.642C244.142 139.243 244.379 139.968 244.379 140.712C244.379 141.457 244.142 142.181 243.703 142.781C243.521 143.045 243.277 143.261 242.994 143.41C242.71 143.559 242.395 143.636 242.075 143.636C241.754 143.636 241.439 143.559 241.155 143.41C240.871 143.261 240.628 143.045 240.445 142.781C240.009 142.198 239.773 141.488 239.774 140.758L239.745 140.797L236.705 136.936L234.308 133.885L232.168 131.161C231.547 131.375 230.873 131.38 230.249 131.175C229.624 130.971 229.083 130.569 228.707 130.029C228.153 129.3 227.811 128.432 227.719 127.52C227.744 127.554 227.766 127.59 227.795 127.626C228.018 127.949 228.316 128.213 228.663 128.396C229.01 128.579 229.397 128.674 229.789 128.674C230.181 128.674 230.567 128.579 230.915 128.396C231.262 128.213 231.56 127.949 231.783 127.626C232.32 126.89 232.61 126.002 232.61 125.09C232.61 124.178 232.32 123.29 231.783 122.554C231.758 122.521 231.731 122.49 231.703 122.459C232.492 122.62 233.193 123.067 233.672 123.716C234.131 124.339 234.449 125.055 234.603 125.814C234.757 126.573 234.744 127.357 234.566 128.111L236.706 130.834L239.103 133.885L242.14 137.746L242.11 137.787C242.423 137.8 242.729 137.884 243.005 138.032C243.28 138.18 243.519 138.389 243.703 138.642Z" fill="#CCEFF6"/>
<path d="M234.305 133.884L236.705 136.935L235.612 138.326L234.305 133.884Z" fill="#006B99"/>
<path d="M234.305 133.884L235.612 138.326L233.665 140.797L233.633 140.758C233.634 141.488 233.398 142.199 232.961 142.783C232.778 143.046 232.535 143.262 232.251 143.41C231.967 143.559 231.652 143.637 231.332 143.637C231.011 143.637 230.696 143.559 230.412 143.41C230.129 143.262 229.885 143.046 229.703 142.783C229.266 142.181 229.031 141.456 229.031 140.713C229.031 139.968 229.266 139.244 229.703 138.642C229.887 138.389 230.127 138.18 230.403 138.031C230.679 137.883 230.984 137.798 231.297 137.784L231.265 137.744L234.305 133.884Z" fill="#CCEFF6"/>
<path d="M233.872 52.2562H231.257V82.6831H233.872V52.2562Z" fill="#FFCEB6"/>
<path d="M221.687 66.9866C221.857 67.1779 221.965 67.4163 221.998 67.6702C222.03 67.9242 221.986 68.1822 221.869 68.4102L221.692 68.7382L220.065 71.7488C220.234 72.1233 220.333 72.5255 220.359 72.9355C220.454 74.385 219.658 75.6158 218.586 75.6818C217.515 75.7481 216.568 74.6341 216.473 73.1846C216.378 71.7351 217.174 70.5051 218.246 70.4383C218.444 70.4246 218.643 70.4517 218.831 70.5181L220.286 67.8318L220.641 67.1727C220.681 67.0741 220.745 66.9874 220.828 66.9203C220.91 66.8535 221.008 66.8087 221.113 66.7898C221.217 66.7712 221.325 66.7794 221.425 66.8139C221.526 66.8483 221.616 66.9076 221.687 66.9866Z" fill="#CCEFF6"/>
<path d="M213.218 133.4H192.22V94.516C192.22 94.516 195.31 95.4662 199.262 102.26C203.213 109.053 209.43 125.478 212.819 132.554C212.949 132.825 213.085 133.105 213.218 133.4Z" fill="#FFCEB6"/>
<path d="M200.826 200.869L200.783 200.854C200.783 200.854 202.796 200.887 204.074 200.854L202.428 208.235C201.789 204.787 200.83 201.03 200.786 200.858C200.799 200.863 200.813 200.866 200.826 200.869Z" fill="#006B99"/>
<path d="M192.22 133.4V143.987L192.208 144.079C191.352 143.97 190.777 143.859 190.777 143.859C189.194 142.789 187.575 141.614 186.034 140.434L186.085 140.368C186.34 139.767 186.471 139.121 186.47 138.467V133.404L192.22 133.4Z" fill="#CCEFF6"/>
<path d="M186.47 72.2334V66.9985C186.47 65.701 185.956 64.4568 185.041 63.5393C184.126 62.6222 182.885 62.1065 181.591 62.1065H152.647C151.353 62.1065 150.112 62.6222 149.197 63.5393C148.282 64.4568 147.767 65.701 147.767 66.9985V77.6651C147.767 78.3076 147.894 78.9437 148.139 79.5372C148.384 80.1307 148.744 80.6698 149.197 81.1243C149.65 81.5784 150.188 81.9387 150.78 82.1845C151.372 82.4303 152.006 82.5567 152.647 82.5567H181.588C182.229 82.5567 182.863 82.4303 183.456 82.1845C184.048 81.9387 184.586 81.5784 185.039 81.1243C185.492 80.6698 185.851 80.1307 186.096 79.5372C186.341 78.9437 186.468 78.3076 186.468 77.6651L186.47 72.2334ZM141.176 103.544V58.9699C141.176 56.6399 142.099 54.4056 143.742 52.7581C145.386 51.1107 147.615 50.185 149.938 50.1843H150.988C150.988 51.9396 151.683 53.623 152.922 54.8646C154.16 56.1057 155.839 56.803 157.59 56.803H174.014C175.765 56.8019 177.444 56.1046 178.682 54.8634C179.921 53.6227 180.617 51.9396 180.619 50.1843H183.453C184.604 50.1839 185.744 50.4111 186.807 50.8523C187.871 51.2938 188.837 51.9407 189.651 52.7567C190.466 53.5726 191.111 54.5409 191.552 55.6071C191.993 56.6733 192.22 57.8158 192.22 58.9699V133.4H186.47V127.803C186.47 126.506 185.956 125.262 185.041 124.344C184.126 123.427 182.885 122.911 181.591 122.911H152.647C151.353 122.911 150.112 123.427 149.197 124.344C148.282 125.262 147.767 126.506 147.767 127.803V138.467C147.767 139.765 148.282 141.009 149.197 141.927C150.112 142.844 151.353 143.359 152.647 143.359H159.246C159.45 143.693 159.676 144.013 159.922 144.317C164.131 149.531 170.781 151.289 175.16 151.635L176.035 152.53L175.853 152.778H149.938C147.614 152.777 145.385 151.85 143.742 150.201C142.098 148.553 141.175 146.318 141.176 143.987V103.544ZM147.774 103.544V108.066C147.774 109.364 148.288 110.608 149.204 111.525C150.119 112.443 151.36 112.958 152.654 112.958H181.595C182.889 112.958 184.13 112.443 185.045 111.525C185.96 110.608 186.474 109.364 186.474 108.066V97.4021C186.474 96.1049 185.96 94.8604 185.045 93.9433C184.13 93.0257 182.889 92.5105 181.595 92.5105H152.647C151.353 92.5105 150.112 93.0257 149.197 93.9433C148.282 94.8604 147.767 96.1049 147.767 97.4021L147.774 103.544Z" fill="#CCEFF6"/>
<path d="M186.47 133.4V138.463C186.471 139.116 186.34 139.763 186.085 140.364L186.034 140.429C184.883 139.544 183.775 138.656 182.77 137.804C181.69 136.879 180.455 136.153 179.123 135.659C179.455 135.082 179.649 134.437 179.692 133.774C179.735 133.11 179.625 132.446 179.371 131.832C179.117 131.217 178.725 130.67 178.226 130.232C177.727 129.793 177.135 129.476 176.494 129.304C175.853 129.132 175.181 129.11 174.531 129.24C173.88 129.37 173.268 129.648 172.742 130.053C172.216 130.458 171.79 130.979 171.496 131.575C171.203 132.171 171.05 132.827 171.05 133.492C171.05 133.983 171.135 134.469 171.3 134.931C169.706 134.592 165.751 133.868 163.452 134.424C161.626 134.872 157.746 137.61 158.462 141.372C158.603 142.075 158.869 142.747 159.246 143.356H152.647C151.353 143.356 150.112 142.84 149.197 141.923C148.282 141.006 147.767 139.761 147.767 138.464V127.803C147.767 126.506 148.282 125.262 149.197 124.344C150.112 123.427 151.353 122.911 152.647 122.911H181.588C182.882 122.911 184.123 123.427 185.039 124.344C185.953 125.262 186.468 126.506 186.468 127.803V133.4H186.47Z" fill="#CCEFF6"/>
<path d="M147.767 103.544V97.402C147.767 96.1045 148.282 94.8604 149.197 93.9429C150.112 93.0257 151.353 92.5101 152.647 92.5101H181.588C182.882 92.5101 184.123 93.0257 185.039 93.9429C185.953 94.8604 186.468 96.1045 186.468 97.402V108.066C186.468 109.364 185.953 110.608 185.039 111.525C184.123 112.442 182.882 112.958 181.588 112.958H152.647C151.353 112.958 150.112 112.442 149.197 111.525C148.282 110.608 147.767 109.364 147.767 108.066V103.544ZM161.844 103.639C161.844 102.782 161.59 101.944 161.115 101.231C160.64 100.518 159.964 99.963 159.175 99.6352C158.384 99.3072 157.515 99.2215 156.677 99.3891C155.838 99.5563 155.068 99.9689 154.463 100.575C153.858 101.181 153.447 101.954 153.28 102.794C153.113 103.635 153.198 104.506 153.525 105.298C153.853 106.091 154.407 106.767 155.117 107.244C155.828 107.72 156.664 107.975 157.519 107.975C158.087 107.975 158.65 107.863 159.175 107.646C159.7 107.428 160.177 107.109 160.579 106.706C160.981 106.303 161.3 105.825 161.518 105.299C161.735 104.772 161.847 104.208 161.847 103.639H161.844Z" fill="#CCEFF6"/>
<path d="M186.47 72.2334V77.6651C186.47 78.3076 186.344 78.9437 186.099 79.5369C185.854 80.1304 185.494 80.6698 185.041 81.1239C184.588 81.5784 184.05 81.9387 183.458 82.1845C182.866 82.4303 182.231 82.5567 181.591 82.5567H152.647C152.006 82.5567 151.372 82.4303 150.78 82.1845C150.188 81.9387 149.65 81.5784 149.197 81.1239C148.744 80.6698 148.384 80.1304 148.139 79.5369C147.894 78.9437 147.767 78.3076 147.767 77.6651V67.0011C147.767 65.7036 148.282 64.4594 149.197 63.5419C150.112 62.6244 151.353 62.1091 152.647 62.1091H181.588C182.882 62.1091 184.123 62.6244 185.039 63.5419C185.953 64.4594 186.468 65.7036 186.468 67.0011L186.47 72.2334ZM179.701 72.3279C179.701 71.4701 179.447 70.6319 178.971 69.9186C178.496 69.2054 177.821 68.6497 177.03 68.3216C176.24 67.9931 175.37 67.9075 174.531 68.0747C173.692 68.2419 172.921 68.6548 172.316 69.2613C171.711 69.8678 171.299 70.6408 171.132 71.4819C170.965 72.3231 171.051 73.195 171.378 73.9872C171.706 74.7798 172.26 75.4571 172.972 75.9335C173.683 76.4099 174.519 76.6642 175.375 76.6642C176.522 76.6634 177.621 76.2063 178.432 75.393C179.243 74.58 179.698 73.4775 179.699 72.3279H179.701Z" fill="#CCEFF6"/>
<path d="M150.988 50.1843H180.619C180.617 51.9396 179.921 53.6227 178.682 54.8634C177.444 56.1046 175.765 56.8019 174.014 56.803H157.59C155.839 56.803 154.16 56.1057 152.921 54.8646C151.683 53.623 150.988 51.9396 150.988 50.1843Z" fill="#006B99"/>
<path d="M179.699 133.494C179.698 134.254 179.499 135.001 179.122 135.66L178.86 135.574C178.851 135.573 178.842 135.57 178.834 135.567C178.649 135.502 178.464 135.446 178.278 135.399C178.188 135.374 178.097 135.349 178.006 135.326C177.883 135.294 177.763 135.268 177.643 135.241C177.494 135.212 177.349 135.183 177.204 135.155C176.942 135.108 176.691 135.075 176.434 135.049C175.569 134.965 174.698 134.954 173.831 135.017C173.787 135.017 173.745 135.023 173.699 135.023C173.623 135.031 173.551 135.035 173.478 135.038C173.25 135.052 173.039 135.067 172.846 135.082C172.561 135.104 172.275 135.104 171.99 135.082C171.99 135.082 171.733 135.02 171.292 134.926C171.127 134.464 171.043 133.978 171.042 133.487C171.034 132.913 171.14 132.342 171.354 131.809C171.567 131.276 171.885 130.791 172.287 130.382C172.69 129.972 173.169 129.647 173.698 129.426C174.227 129.204 174.794 129.09 175.367 129.09C175.941 129.09 176.508 129.204 177.037 129.426C177.566 129.647 178.045 129.972 178.448 130.382C178.85 130.791 179.167 131.276 179.381 131.809C179.595 132.342 179.701 132.913 179.693 133.487L179.699 133.494Z" fill="white"/>
<path d="M175.375 76.6646C177.764 76.6646 179.701 74.7227 179.701 72.3279C179.701 69.9331 177.764 67.9913 175.375 67.9913C172.986 67.9913 171.049 69.9331 171.049 72.3279C171.049 74.7227 172.986 76.6646 175.375 76.6646Z" fill="white"/>
<path d="M153.192 152.776H166.953C166.499 153.645 166.163 154.571 165.954 155.529L165.698 155.514C163.717 155.074 153.192 152.776 153.192 152.776Z" fill="#006B99"/>
<path d="M157.521 99.3031C158.377 99.3024 159.214 99.5563 159.926 100.032C160.638 100.508 161.193 101.186 161.521 101.978C161.848 102.77 161.934 103.642 161.768 104.484C161.601 105.325 161.19 106.098 160.585 106.705C159.98 107.312 159.209 107.725 158.37 107.893C157.53 108.06 156.66 107.975 155.87 107.646C155.079 107.318 154.403 106.762 153.928 106.049C153.452 105.335 153.199 104.496 153.199 103.639C153.2 102.489 153.655 101.387 154.465 100.574C155.276 99.7613 156.375 99.3042 157.521 99.3031Z" fill="white"/>
<path d="M147.396 50.1843H149.938C147.615 50.185 145.386 51.1107 143.742 52.7581C142.099 54.4056 141.176 56.6399 141.176 58.9699V103.544H138.633V58.9699C138.633 56.6399 139.557 54.4056 141.2 52.7581C142.843 51.1107 145.072 50.185 147.396 50.1843Z" fill="#006B99"/>
<path d="M149.938 152.776H147.396C145.071 152.776 142.841 151.85 141.197 150.202C139.553 148.554 138.629 146.318 138.629 143.987V103.544H141.176V143.987C141.176 146.318 142.099 148.552 143.742 150.2C145.385 151.848 147.614 152.775 149.938 152.776Z" fill="#006B99"/>
<path d="M135.963 128.321V139.443C135.963 139.443 132 138.763 126.611 137.863C121.223 136.964 121.218 130.483 124.098 128.321C126.978 126.159 135.592 128.321 135.592 128.321H135.963Z" fill="#FFCEB6"/>
<path d="M119.061 99.8925V105.74H117.299C116.649 105.74 116.322 106.73 116.785 107.313L118.031 108.882L114.748 113.018L113.501 111.449C113.039 110.866 112.255 111.277 112.255 112.097V114.317H107.61V112.097C107.61 111.278 106.825 110.866 106.364 111.449L105.118 113.018L101.835 108.882L103.081 107.313C103.542 106.73 103.215 105.74 102.567 105.74H100.803V99.8925H102.567C103.217 99.8925 103.544 98.899 103.081 98.3196L101.835 96.7474L105.118 92.6117L106.364 94.1805C106.825 94.7596 107.61 94.3522 107.61 93.5292V91.3116H112.255V93.5325C112.255 94.3548 113.039 94.7633 113.501 94.1839L114.746 92.615L118.029 96.7474L116.784 98.3162C116.322 98.8953 116.649 99.8892 117.298 99.8892L119.061 99.8925ZM112.687 102.817C112.687 100.898 111.452 99.3428 109.934 99.3428C108.417 99.3428 107.178 100.898 107.178 102.817C107.178 104.736 108.412 106.286 109.934 106.286C111.456 106.286 112.687 104.729 112.687 102.817Z" fill="#CCEFF6"/>
<path d="M95.7306 86.2216H92.7523V120.868H95.7306V86.2216Z" fill="#FFCEB6"/>
<path d="M95.7306 86.2216L124.882 88.7703V118.319L95.7306 120.868" stroke="#006B99" stroke-width="3.704" stroke-linecap="round" stroke-linejoin="round"/>
<path d="M95.7306 86.2216H92.7523V120.868H95.7306V86.2216Z" stroke="#006B99" stroke-width="3.704" stroke-linecap="round" stroke-linejoin="round"/>
<path d="M231.257 52.2562L205.657 57.7717V85.5443L231.257 82.6824" stroke="#006B99" stroke-width="3.704" stroke-linecap="round" stroke-linejoin="round"/>
<path d="M233.872 52.2562H231.257V82.6831H233.872V52.2562Z" stroke="#006B99" stroke-width="3.704" stroke-linecap="round" stroke-linejoin="round"/>
<path d="M249.965 117.427L223.125 119.772V146.972L249.965 149.321" stroke="#006B99" stroke-width="3.704" stroke-linecap="round" stroke-linejoin="round"/>
<path d="M252.707 117.427H249.965V149.32H252.707V117.427Z" stroke="#006B99" stroke-width="3.704" stroke-linecap="round" stroke-linejoin="round"/>
<path d="M180.619 50.1843H183.453C184.604 50.1839 185.744 50.4111 186.807 50.8523C187.871 51.2938 188.837 51.9407 189.651 52.7567C190.466 53.5726 191.111 54.5409 191.552 55.6071C191.992 56.6733 192.22 57.8158 192.22 58.9699V143.987" stroke="#006B99" stroke-width="3.704" stroke-linecap="round" stroke-linejoin="round"/>
<path d="M150.523 50.1843H150.988" stroke="#006B99" stroke-width="3.704" stroke-linecap="round" stroke-linejoin="round"/>
<path d="M147.396 152.776C145.071 152.776 142.841 151.85 141.197 150.202C139.553 148.554 138.629 146.318 138.629 143.987V58.9699C138.629 57.8158 138.856 56.6733 139.296 55.6071C139.737 54.5409 140.383 53.5726 141.197 52.7567C142.011 51.9407 142.978 51.2938 144.041 50.8523C145.105 50.4111 146.245 50.1839 147.396 50.1843" stroke="#006B99" stroke-width="3.704" stroke-linecap="round" stroke-linejoin="round"/>
<path d="M175.851 152.776H166.953H153.192H150.523" stroke="#006B99" stroke-width="3.704" stroke-linecap="round" stroke-linejoin="round"/>
<path d="M149.938 152.776C147.614 152.775 145.385 151.848 143.742 150.2C142.099 148.552 141.176 146.318 141.176 143.987V58.9699C141.176 56.6399 142.099 54.4056 143.742 52.7581C145.386 51.1107 147.615 50.185 149.938 50.1843" stroke="#006B99" stroke-width="3.704" stroke-linecap="round" stroke-linejoin="round"/>
<path d="M139.392 151.243C138.33 150.482 137.465 149.477 136.868 148.313C136.272 147.149 135.962 145.858 135.963 144.55V58.4086C135.963 57.328 136.175 56.2581 136.588 55.2597C137 54.2618 137.605 53.3546 138.367 52.591C139.13 51.8269 140.035 51.2215 141.031 50.8086C142.027 50.3956 143.094 50.1835 144.172 50.1843H150.527" stroke="#006B99" stroke-width="3.704" stroke-linecap="round" stroke-linejoin="round"/>
<path d="M150.523 152.776H144.172C142.46 152.779 140.79 152.242 139.399 151.24" stroke="#006B99" stroke-width="3.704" stroke-linecap="round" stroke-linejoin="round"/>
<path d="M180.619 50.1843C180.617 51.9396 179.921 53.6227 178.682 54.8634C177.444 56.1046 175.765 56.8019 174.014 56.803H157.59C155.839 56.803 154.16 56.1057 152.921 54.8646C151.683 53.623 150.988 51.9396 150.988 50.1843H180.619Z" stroke="#006B99" stroke-width="3.704" stroke-linecap="round" stroke-linejoin="round"/>
<path d="M181.589 82.5552H152.647C151.353 82.5552 150.112 82.0396 149.197 81.1224C148.282 80.2049 147.767 78.9608 147.767 77.6633V67.0011C147.767 65.7036 148.282 64.4594 149.197 63.5419C150.112 62.6244 151.353 62.1091 152.647 62.1091H181.588C182.882 62.1091 184.123 62.6244 185.039 63.5419C185.953 64.4594 186.468 65.7036 186.468 67.0011V77.6651C186.467 78.9619 185.953 80.2056 185.038 81.1228C184.123 82.0396 182.883 82.5549 181.589 82.5552Z" stroke="#006B99" stroke-width="3.704" stroke-linecap="round" stroke-linejoin="round"/>
<path d="M181.589 112.956H152.647C151.353 112.956 150.112 112.441 149.197 111.523C148.282 110.606 147.767 109.362 147.767 108.065V97.402C147.767 96.1045 148.282 94.8604 149.197 93.9429C150.112 93.0257 151.353 92.5101 152.647 92.5101H181.588C182.882 92.5101 184.123 93.0257 185.039 93.9429C185.953 94.8604 186.468 96.1045 186.468 97.402V108.066C186.467 109.363 185.953 110.607 185.038 111.524C184.123 112.441 182.883 112.956 181.589 112.956Z" stroke="#006B99" stroke-width="3.704" stroke-linecap="round" stroke-linejoin="round"/>
<path d="M159.25 143.358H152.647C151.353 143.358 150.112 142.842 149.197 141.925C148.282 141.007 147.767 139.763 147.767 138.466V127.803C147.767 126.506 148.282 125.262 149.197 124.344C150.112 123.427 151.353 122.911 152.647 122.911H181.588C182.882 122.911 184.123 123.427 185.039 124.344C185.953 125.262 186.468 126.506 186.468 127.803V138.467C186.468 139.121 186.337 139.767 186.082 140.368" stroke="#006B99" stroke-width="3.704" stroke-linecap="round" stroke-linejoin="round"/>
<path d="M127.468 103.544H135.963H138.629H141.171H147.77H150.988" stroke="#006B99" stroke-width="3.704" stroke-linecap="round" stroke-linejoin="round"/>
<path d="M171.3 134.933C169.706 134.593 165.751 133.869 163.452 134.426C161.626 134.874 157.746 137.612 158.462 141.373C158.603 142.076 158.869 142.748 159.246 143.358C159.45 143.692 159.676 144.011 159.922 144.315C164.131 149.529 170.781 151.288 175.16 151.633L176.035 152.528C178.163 154.717 183.556 160.252 184.991 161.797C184.991 161.797 189.175 178.239 193.802 182.877C200.063 189.158 203.646 190.949 207.67 191.549" stroke="#006B99" stroke-width="3.704" stroke-linecap="round" stroke-linejoin="round"/>
<path d="M173.483 135.041C173.254 135.056 173.044 135.07 172.851 135.085" stroke="#006B99" stroke-width="3.704" stroke-linecap="round" stroke-linejoin="round"/>
<path d="M177.206 135.158C176.944 135.111 176.692 135.078 176.435 135.052C175.57 134.968 174.699 134.957 173.832 135.02" stroke="#006B99" stroke-width="3.704" stroke-linecap="round" stroke-linejoin="round"/>
<path d="M178.008 135.326C177.885 135.293 177.765 135.267 177.645 135.24" stroke="#006B99" stroke-width="3.704" stroke-linecap="round" stroke-linejoin="round"/>
<path d="M178.836 135.566C178.651 135.501 178.466 135.446 178.28 135.398" stroke="#006B99" stroke-width="3.704" stroke-linecap="round" stroke-linejoin="round"/>
<path d="M197.979 147.948C195.445 146.836 193.032 145.466 190.777 143.86C189.194 142.789 187.575 141.614 186.034 140.434C184.883 139.549 183.775 138.661 182.77 137.808C181.69 136.884 180.455 136.157 179.123 135.663L178.862 135.577" stroke="#006B99" stroke-width="3.704" stroke-linecap="round" stroke-linejoin="round"/>
<path d="M190.777 143.863C190.777 143.863 191.352 143.973 192.208 144.082C193.981 144.311 196.973 144.551 198.637 143.863" stroke="#006B99" stroke-width="3.704" stroke-linecap="round" stroke-linejoin="round"/>
<path d="M173.706 135.023C172.769 136.053 168.244 139.502 168.827 143.856" stroke="#006B99" stroke-width="3.704" stroke-linecap="round" stroke-linejoin="round"/>
<path d="M158.462 141.374C160.169 142.655 164.363 143.434 166.005 142.51C166.005 142.51 166.972 137.577 169.143 135.935" stroke="#006B99" stroke-width="3.704" stroke-linecap="round" stroke-linejoin="round"/>
<path d="M248.124 213.244C248.124 213.244 248.124 208.973 245.054 201.315C242.476 194.871 229.765 175.588 225.81 164.55C222.007 153.933 216.64 140.692 213.218 133.402C213.084 133.107 212.949 132.827 212.819 132.554C209.43 125.476 203.217 109.056 199.262 102.259C195.307 95.4617 192.22 94.516 192.22 94.516" stroke="#006B99" stroke-width="3.704" stroke-linecap="round" stroke-linejoin="round"/>
<path d="M200.826 200.869L200.783 200.854V200.861C200.826 201.033 201.785 204.79 202.425 208.237C202.797 209.88 202.975 211.56 202.955 213.244" stroke="#006B99" stroke-width="3.704" stroke-linecap="round" stroke-linejoin="round"/>
<path d="M164.763 165.563C164.646 166.151 164.598 166.751 164.618 167.35C164.618 167.537 164.629 167.722 164.643 167.908C164.764 169.251 165.259 170.534 166.07 171.611C167.697 173.77 170.447 177.206 172.016 177.942C172.016 177.942 187.545 197.423 194.708 199.295C199.403 200.523 200.554 200.81 200.785 200.861C200.799 200.865 200.812 200.867 200.826 200.869C200.831 200.87 200.835 200.87 200.84 200.869" stroke="#006B99" stroke-width="3.704" stroke-linecap="round" stroke-linejoin="round"/>
<path d="M164.618 167.908C164.618 167.908 156.457 166.963 152.073 165.563C152.073 165.563 145.09 163.728 143.143 162.887C143.143 162.887 130.941 158.347 127.857 156.559C124.774 154.772 126.231 147.279 132.404 149.07C136.039 150.122 139.243 151.189 139.392 151.24" stroke="#006B99" stroke-width="3.704" stroke-linecap="round" stroke-linejoin="round"/>
<path d="M142.184 155.15C142.184 155.15 141.756 157.08 141.651 158.045" stroke="#006B99" stroke-width="3.704" stroke-linecap="round" stroke-linejoin="round"/>
<path d="M153.443 156.971C153.443 156.971 153.015 159.992 152.909 160.958" stroke="#006B99" stroke-width="3.704" stroke-linecap="round" stroke-linejoin="round"/>
<path d="M200.783 200.854C200.783 200.854 202.796 200.887 204.074 200.854L202.428 208.235" stroke="#006B99" stroke-width="3.704" stroke-linecap="round" stroke-linejoin="round"/>
<path d="M135.592 128.321C135.592 128.321 126.971 126.158 124.098 128.321C121.225 130.483 121.222 136.964 126.611 137.863C132.001 138.763 135.963 139.443 135.963 139.443" stroke="#006B99" stroke-width="3.704" stroke-linecap="round" stroke-linejoin="round"/>
<path d="M166.953 152.776C166.499 153.645 166.163 154.571 165.954 155.529C165.818 156.121 165.732 156.724 165.698 157.331" stroke="#006B99" stroke-width="3.704" stroke-linecap="round" stroke-linejoin="round"/>
<path d="M153.192 152.776C153.192 152.776 163.717 155.074 165.696 155.514" stroke="#006B99" stroke-width="3.704" stroke-linecap="round" stroke-linejoin="round"/>
<path d="M161.847 103.639C161.847 104.496 161.593 105.334 161.118 106.047C160.643 106.759 159.968 107.315 159.178 107.643C158.388 107.971 157.518 108.056 156.68 107.889C155.841 107.722 155.071 107.309 154.466 106.703C153.861 106.097 153.45 105.325 153.282 104.484C153.116 103.643 153.201 102.772 153.528 101.98C153.855 101.188 154.409 100.511 155.12 100.035C155.831 99.5578 156.666 99.3035 157.521 99.3031C158.09 99.3031 158.652 99.4151 159.177 99.633C159.702 99.8506 160.179 100.17 160.58 100.573C160.982 100.975 161.301 101.453 161.518 101.979C161.735 102.505 161.847 103.069 161.847 103.639Z" stroke="#006B99" stroke-width="3.704" stroke-linecap="round" stroke-linejoin="round"/>
<path d="M201.796 72.2334H192.22H186.47H181.912" stroke="#006B99" stroke-width="3.704" stroke-linecap="round" stroke-linejoin="round"/>
<path d="M175.375 76.6646C177.764 76.6646 179.701 74.7227 179.701 72.3279C179.701 69.9331 177.764 67.9913 175.375 67.9913C172.986 67.9913 171.049 69.9331 171.049 72.3279C171.049 74.7227 172.986 76.6646 175.375 76.6646Z" stroke="#006B99" stroke-width="3.704" stroke-linecap="round" stroke-linejoin="round"/>
<path d="M219.955 133.4H213.218H192.22H186.47H181.912" stroke="#006B99" stroke-width="3.704" stroke-linecap="round" stroke-linejoin="round"/>
<path d="M171.3 134.932C171.736 135.027 171.997 135.089 171.997 135.089C172.283 135.111 172.569 135.111 172.854 135.089C173.049 135.077 173.26 135.062 173.486 135.045C173.558 135.045 173.631 135.038 173.707 135.03C173.751 135.03 173.793 135.03 173.838 135.023C174.705 134.962 175.576 134.973 176.441 135.056C176.689 135.082 176.946 135.118 177.212 135.161C177.357 135.187 177.502 135.217 177.651 135.247C177.771 135.273 177.891 135.302 178.014 135.333C178.105 135.356 178.196 135.38 178.286 135.406C178.472 135.457 178.657 135.512 178.842 135.574C178.85 135.577 178.859 135.58 178.867 135.581C178.953 135.61 179.039 135.639 179.124 135.672V135.668C179.455 135.092 179.65 134.447 179.693 133.783C179.736 133.12 179.626 132.455 179.372 131.841C179.118 131.227 178.726 130.679 178.227 130.241C177.728 129.803 177.135 129.485 176.495 129.313C175.854 129.142 175.183 129.12 174.532 129.25C173.881 129.379 173.269 129.657 172.743 130.062C172.217 130.467 171.79 130.988 171.497 131.584C171.204 132.181 171.051 132.837 171.051 133.502C171.052 133.99 171.136 134.473 171.3 134.932Z" stroke="#006B99" stroke-width="3.704" stroke-linecap="round" stroke-linejoin="round"/>
<path d="M119.061 99.8925H117.299C116.649 99.8925 116.322 98.899 116.785 98.3196L118.029 96.7474L114.746 92.6117L113.501 94.1805C113.039 94.7596 112.255 94.3522 112.255 93.5292V91.3116H107.61V93.5325C107.61 94.3548 106.825 94.7633 106.364 94.1839L105.118 92.615L101.835 96.7474L103.081 98.3196C103.542 98.899 103.215 99.8925 102.567 99.8925H100.803V105.74H102.567C103.217 105.74 103.544 106.73 103.081 107.313L101.835 108.882L105.118 113.018L106.364 111.449C106.825 110.866 107.61 111.277 107.61 112.097V114.317H112.255V112.097C112.255 111.278 113.039 110.866 113.501 111.449L114.746 113.018L118.029 108.882L116.784 107.313C116.322 106.73 116.649 105.74 117.298 105.74H119.059V99.8925H119.061Z" stroke="#006B99" stroke-width="3.704" stroke-linecap="round" stroke-linejoin="round"/>
<path d="M112.687 102.817C112.687 104.731 111.452 106.286 109.934 106.286C108.417 106.286 107.178 104.731 107.178 102.817C107.178 100.902 108.412 99.3428 109.934 99.3428C111.456 99.3428 112.687 100.898 112.687 102.817Z" stroke="#006B99" stroke-width="3.704" stroke-linecap="round" stroke-linejoin="round"/>
<path d="M220.282 67.8315C219.583 67.5141 218.816 67.3725 218.049 67.4196C216.371 67.5286 214.914 68.7345 213.916 70.4784C212.873 72.3776 212.395 74.537 212.539 76.7005C212.546 76.8128 212.554 76.9296 212.565 77.0438" stroke="#006B99" stroke-width="3.704" stroke-linecap="round" stroke-linejoin="round"/>
<path d="M224.636 75.5246C224.636 75.4112 224.63 75.2988 224.622 75.1813C224.525 73.314 223.905 71.512 222.832 69.9824C222.501 69.5238 222.119 69.106 221.692 68.7372" stroke="#006B99" stroke-width="3.704" stroke-linecap="round" stroke-linejoin="round"/>
<path d="M224.636 75.5246L228.232 75.2914C228.225 75.1787 228.225 75.0656 228.217 74.9481C228.061 71.9816 227.078 69.1182 225.381 66.6834C223.431 63.9894 220.681 62.376 217.74 62.5692C214.911 62.7553 212.473 64.7723 210.883 67.6995C209.395 70.5373 208.725 73.7351 208.951 76.9329C208.958 77.049 208.969 77.162 208.976 77.2762L212.572 77.0438" stroke="#006B99" stroke-width="3.704" stroke-linecap="round" stroke-linejoin="round"/>
<path d="M221.692 68.7379L221.869 68.4102C221.986 68.1822 222.03 67.9242 221.998 67.6702C221.965 67.4159 221.857 67.1779 221.687 66.9862C221.616 66.9069 221.526 66.8469 221.425 66.812C221.324 66.7772 221.216 66.7686 221.111 66.7872C221.006 66.8057 220.907 66.8509 220.824 66.9184C220.742 66.9859 220.677 67.0734 220.638 67.1727L220.282 67.8319L218.827 70.5181C218.64 70.4517 218.441 70.4243 218.243 70.438C217.171 70.5077 216.375 71.7385 216.469 73.1843C216.564 74.6304 217.512 75.7515 218.583 75.6818C219.654 75.6124 220.45 74.3824 220.356 72.9355C220.33 72.5255 220.23 72.1233 220.062 71.7485L221.692 68.7379Z" stroke="#006B99" stroke-width="3.704" stroke-linecap="round" stroke-linejoin="round"/>
<path d="M217.736 62.5699L218.049 67.42" stroke="#006B99" stroke-width="3.704" stroke-linecap="round" stroke-linejoin="round"/>
<path d="M210.905 67.7151L213.534 70.4528" stroke="#006B99" stroke-width="3.704" stroke-linecap="round" stroke-linejoin="round"/>
<path d="M225.247 66.7787L223.046 69.8337" stroke="#006B99" stroke-width="3.704" stroke-linecap="round" stroke-linejoin="round"/>
<path d="M239.11 133.884L241.25 131.161C241.871 131.374 242.544 131.378 243.168 131.174C243.791 130.97 244.332 130.567 244.708 130.028C245.264 129.3 245.607 128.431 245.699 127.519C245.673 127.553 245.649 127.589 245.623 127.625C245.399 127.948 245.101 128.213 244.754 128.395C244.406 128.578 244.019 128.673 243.627 128.673C243.235 128.673 242.848 128.578 242.5 128.395C242.153 128.213 241.854 127.948 241.631 127.625C241.095 126.889 240.806 126.001 240.806 125.089C240.806 124.178 241.095 123.29 241.631 122.554C241.657 122.52 241.685 122.488 241.717 122.458C240.926 122.618 240.222 123.066 239.741 123.715C239.283 124.339 238.966 125.055 238.812 125.814C238.659 126.573 238.672 127.356 238.851 128.11L236.711 130.833" stroke="#006B99" stroke-width="3.704" stroke-linecap="round" stroke-linejoin="round"/>
<path d="M234.305 133.884L231.265 137.746L231.297 137.786C230.984 137.8 230.679 137.885 230.403 138.033C230.127 138.182 229.887 138.391 229.702 138.644C229.266 139.246 229.031 139.97 229.031 140.714C229.031 141.457 229.266 142.182 229.702 142.783C229.885 143.047 230.128 143.263 230.412 143.411C230.696 143.56 231.011 143.638 231.332 143.638C231.652 143.638 231.967 143.56 232.251 143.411C232.535 143.263 232.778 143.047 232.961 142.783C233.398 142.2 233.634 141.49 233.633 140.76L233.665 140.799L235.612 138.328L236.705 136.936" stroke="#006B99" stroke-width="3.704" stroke-linecap="round" stroke-linejoin="round"/>
<path d="M236.705 130.833L234.565 128.11C234.744 127.356 234.756 126.573 234.602 125.813C234.448 125.054 234.13 124.338 233.671 123.715C233.192 123.066 232.491 122.619 231.702 122.458C231.73 122.489 231.757 122.521 231.782 122.554C232.319 123.289 232.609 124.177 232.609 125.089C232.609 126.001 232.319 126.889 231.782 127.625C231.559 127.948 231.261 128.213 230.914 128.395C230.567 128.578 230.18 128.673 229.788 128.673C229.396 128.673 229.01 128.578 228.663 128.395C228.315 128.213 228.017 127.948 227.794 127.625C227.765 127.589 227.743 127.553 227.718 127.519C227.81 128.431 228.152 129.299 228.706 130.028C229.082 130.568 229.623 130.97 230.247 131.175C230.872 131.379 231.546 131.374 232.167 131.161L234.307 133.884L236.704 136.935L239.744 140.797L239.773 140.757C239.773 141.487 240.008 142.197 240.444 142.781C240.627 143.045 240.87 143.26 241.154 143.409C241.438 143.558 241.754 143.636 242.073 143.636C242.394 143.636 242.709 143.558 242.993 143.409C243.277 143.26 243.52 143.045 243.703 142.781C244.142 142.181 244.378 141.455 244.378 140.711C244.378 139.967 244.142 139.242 243.703 138.642C243.519 138.388 243.281 138.179 243.005 138.03C242.73 137.882 242.425 137.798 242.112 137.783L242.141 137.743L239.105 133.881L236.705 130.833Z" stroke="#006B99" stroke-width="3.704" stroke-linecap="round" stroke-linejoin="round"/>
<path d="M234.305 133.884L235.612 138.326" stroke="#006B99" stroke-width="3.704" stroke-linecap="round" stroke-linejoin="round"/>
</g>
<defs>
<clipPath id="clip0_1303_668">
<rect width="355" height="238" fill="white"/>
</clipPath>
</defs>
</svg>
