<svg width="17" height="16" viewBox="0 0 17 16" fill="none" xmlns="http://www.w3.org/2000/svg">
<path d="M3.57431 5.09953C3.64663 5.29004 3.62181 15.2186 3.54882 15.2993C3.47602 15.3799 0.418354 15.4077 0.271768 15.3292C0.198212 15.2897 0.151199 5.10141 0.224267 5.02826C0.237988 5.01448 0.989143 5.00321 1.89348 5.00321H3.53776L3.57431 5.09953Z" fill="white"/>
<path d="M13.0997 4.8667C14.1799 5.08662 15.179 5.93071 15.617 6.99356C15.7894 7.41183 15.8987 7.77888 15.9469 8.10139C15.9654 8.22532 15.9965 8.42811 16.0159 8.55204C16.0716 8.90714 16.0685 15.267 16.0126 15.323C15.9458 15.3899 12.7838 15.3876 12.7284 15.3206C12.702 15.2888 12.6834 14.2841 12.6719 12.2694C12.6525 8.85622 12.6618 8.96993 12.3428 8.25161C11.9585 7.38641 10.6315 7.16878 9.73639 7.82421C9.56075 7.95279 9.2152 8.36111 9.16807 8.49571C9.15724 8.52669 9.11289 8.62808 9.06955 8.72103C8.99164 8.88799 8.99059 8.92814 8.97976 12.091C8.969 15.2312 8.96739 15.2927 8.89499 15.3316C8.7895 15.3881 5.69202 15.3648 5.6344 15.307C5.56159 15.234 5.56253 5.08617 5.63533 5.03975C5.66938 5.01804 6.33483 5.00749 7.32239 5.01294L8.95322 5.02199L8.97196 5.69487C8.99389 6.48159 9.00064 6.49165 9.26682 6.13313C10.0883 5.02649 11.5357 4.54825 13.0997 4.8667Z" fill="white"/>
<path d="M2.41189 0.0462689C4.01516 0.35083 4.31609 2.58362 2.85105 3.30484C1.75301 3.84539 0.406621 3.35389 0.0852175 2.29514C-0.335835 0.908127 0.860739 -0.248415 2.41189 0.0462689Z" fill="white"/>
</svg>
