<svg width="23" height="19" viewBox="0 0 23 19" fill="none" xmlns="http://www.w3.org/2000/svg">
<path d="M13.1462 18.854C13.0997 18.8076 13.0629 18.7524 13.0377 18.6917C13.0125 18.631 12.9996 18.566 12.9996 18.5003C12.9996 18.4346 13.0125 18.3695 13.0377 18.3088C13.0629 18.2481 13.0997 18.193 13.1462 18.1465L21.2925 10.0003L0.499975 10.0003C0.367366 10.0003 0.240188 9.9476 0.146421 9.85383C0.0526519 9.76006 -2.52166e-05 9.63289 -2.52108e-05 9.50028C-2.5205e-05 9.36767 0.052652 9.24049 0.146421 9.14672C0.240188 9.05296 0.367366 9.00028 0.499975 9.00028L21.2925 9.00028L13.1462 0.854028C13.0998 0.807573 13.0629 0.752422 13.0378 0.691726C13.0126 0.631029 12.9997 0.565975 12.9997 0.500278C12.9997 0.43458 13.0126 0.369526 13.0378 0.308829C13.0629 0.248133 13.0998 0.192982 13.1462 0.146527C13.1927 0.100072 13.2478 0.0632221 13.3085 0.0380807C13.3692 0.0129394 13.4343 -4.18147e-07 13.5 -4.15275e-07C13.5657 -4.12404e-07 13.6307 0.0129394 13.6914 0.0380808C13.7521 0.0632221 13.8073 0.100072 13.8537 0.146527L22.8537 9.14653C22.9002 9.19296 22.9371 9.24811 22.9623 9.30881C22.9874 9.36951 23.0004 9.43457 23.0004 9.50028C23.0004 9.56599 22.9874 9.63105 22.9623 9.69175C22.9371 9.75245 22.9002 9.80759 22.8537 9.85403L13.8537 18.854C13.8073 18.9005 13.7521 18.9374 13.6914 18.9626C13.6307 18.9877 13.5657 19.0007 13.5 19.0007C13.4343 19.0007 13.3692 18.9877 13.3085 18.9626C13.2478 18.9374 13.1927 18.9005 13.1462 18.854Z" fill="white"/>
</svg>
