<svg width="55" height="55" viewBox="0 0 55 55" fill="none" xmlns="http://www.w3.org/2000/svg">
<rect width="55" height="55" fill="#2C2C2C"/>
<path d="M17.3333 38.1667C16.6 38.1667 15.972 37.9053 15.4493 37.3827C14.9267 36.86 14.6658 36.2325 14.6667 35.5V19.5C14.6667 18.7667 14.928 18.1387 15.4507 17.616C15.9733 17.0933 16.6009 16.8325 17.3333 16.8333H38.6667C39.4 16.8333 40.028 17.0947 40.5507 17.6173C41.0733 18.14 41.3342 18.7676 41.3333 19.5V35.5C41.3333 36.2333 41.072 36.8613 40.5493 37.384C40.0267 37.9067 39.3991 38.1676 38.6667 38.1667H17.3333ZM28 28.8333L17.3333 22.1667V35.5H38.6667V22.1667L28 28.8333ZM28 26.1667L38.6667 19.5H17.3333L28 26.1667ZM17.3333 22.1667V19.5V35.5V22.1667Z" fill="#F8F5F4"/>
</svg>
