<svg width="55" height="55" viewBox="0 0 55 55" fill="none" xmlns="http://www.w3.org/2000/svg">
<rect width="55" height="55" fill="#2C2C2C"/>
<path d="M28 20.6667C28.884 20.6667 29.7319 21.0179 30.357 21.643C30.9821 22.2681 31.3333 23.1159 31.3333 24C31.3333 24.4377 31.2471 24.8712 31.0796 25.2756C30.9121 25.68 30.6665 26.0475 30.357 26.357C30.0475 26.6666 29.68 26.9121 29.2756 27.0796C28.8712 27.2471 28.4377 27.3333 28 27.3333C27.1159 27.3333 26.2681 26.9821 25.643 26.357C25.0178 25.7319 24.6667 24.8841 24.6667 24C24.6667 23.1159 25.0178 22.2681 25.643 21.643C26.2681 21.0179 27.1159 20.6667 28 20.6667ZM28 14.6667C30.4753 14.6667 32.8493 15.65 34.5997 17.4003C36.35 19.1507 37.3333 21.5247 37.3333 24C37.3333 31 28 41.3333 28 41.3333C28 41.3333 18.6667 31 18.6667 24C18.6667 21.5247 19.65 19.1507 21.4003 17.4003C23.1507 15.65 25.5246 14.6667 28 14.6667ZM28 17.3333C26.2319 17.3333 24.5362 18.0357 23.2859 19.286C22.0357 20.5362 21.3333 22.2319 21.3333 24C21.3333 25.3333 21.3333 28 28 36.9467C34.6667 28 34.6667 25.3333 34.6667 24C34.6667 22.2319 33.9643 20.5362 32.714 19.286C31.4638 18.0357 29.7681 17.3333 28 17.3333Z" fill="#F8F5F4"/>
</svg>
