<svg width="34" height="34" viewBox="0 0 34 34" fill="none" xmlns="http://www.w3.org/2000/svg">
<path d="M33.3333 30.0021C33.3333 30.6614 33.1378 31.3059 32.7716 31.854C32.4053 32.4022 31.8847 32.8294 31.2756 33.0817C30.6665 33.334 29.9963 33.4 29.3497 33.2714C28.7031 33.1428 28.1092 32.8253 27.643 32.3592C27.1768 31.893 26.8593 31.299 26.7307 30.6524C26.6021 30.0058 26.6681 29.3356 26.9204 28.7265C27.1727 28.1174 27.5999 27.5968 28.1481 27.2306C28.6963 26.8643 29.3407 26.6688 30 26.6688C30.8841 26.6688 31.7319 27.02 32.357 27.6451C32.9821 28.2702 33.3333 29.1181 33.3333 30.0021ZM3.33333 28.3355C3.9926 28.3355 4.63707 28.14 5.18523 27.7737C5.7334 27.4074 6.16064 26.8868 6.41293 26.2777C6.66522 25.6687 6.73124 24.9984 6.60262 24.3518C6.474 23.7052 6.15653 23.1113 5.69036 22.6451C5.22418 22.1789 4.63024 21.8615 3.98363 21.7329C3.33703 21.6042 2.66681 21.6702 2.05772 21.9225C1.44863 22.1748 0.928039 22.6021 0.561768 23.1502C0.195496 23.6984 0 24.3429 0 25.0021C0 25.8862 0.351189 26.734 0.976311 27.3592C1.60143 27.9843 2.44928 28.3355 3.33333 28.3355ZM30 0.00213474C29.3407 0.00213474 28.6963 0.197631 28.1481 0.563903C27.5999 0.930174 27.1727 1.45077 26.9204 2.05986C26.6681 2.66894 26.6021 3.33917 26.7307 3.98577C26.8593 4.63237 27.1768 5.22632 27.643 5.69249C28.1092 6.15867 28.7031 6.47614 29.3497 6.60475C29.9963 6.73337 30.6665 6.66736 31.2756 6.41507C31.8847 6.16278 32.4053 5.73553 32.7716 5.18737C33.1378 4.6392 33.3333 3.99474 33.3333 3.33547C33.3333 2.45141 32.9821 1.60357 32.357 0.978445C31.7319 0.353324 30.8841 0.00213474 30 0.00213474ZM5.8575 0.073468C4.57563 -0.148706 3.25764 0.137502 2.18337 0.871325C1.10909 1.60515 0.363146 2.72879 0.103903 4.00368C-0.15534 5.27858 0.0925386 6.60431 0.794909 7.6994C1.49728 8.7945 2.59883 9.57271 3.86567 9.8688C5.11348 10.1656 6.42799 9.95965 7.52517 9.2953L9.50683 11.277C9.93777 11.7063 10.2417 12.2463 10.3852 12.8375C10.5287 13.4286 10.506 14.0479 10.3198 14.627C10.1074 15.2867 9.99946 15.9757 10 16.6688C10 16.8701 10.0096 17.069 10.0287 17.2653C10.0786 17.8667 9.96022 18.4701 9.68685 19.0081C9.41347 19.5461 8.99585 19.9974 8.48067 20.3116L7.49567 20.9273C8.08154 21.5333 8.52904 22.259 8.80733 23.0546L9.814 22.4255C10.335 22.1017 10.9353 21.9283 11.5487 21.9243C12.1621 21.9204 12.7646 22.0861 13.2897 22.4031C14.3099 23.0144 15.4773 23.3367 16.6667 23.3355C17.3599 23.3361 18.049 23.2282 18.7088 23.0156C19.2879 22.8294 19.9072 22.8068 20.4983 22.9503C21.0894 23.0937 21.6295 23.3976 22.0588 23.8285L25.0972 26.8668C25.5522 26.1573 26.1551 25.5543 26.8647 25.0993L23.8265 22.061C23.3956 21.6316 23.0916 21.0916 22.9481 20.5005C22.8047 19.9093 22.8273 19.2901 23.0135 18.711C23.4399 17.3827 23.4399 15.9542 23.0135 14.626C22.8273 14.0469 22.8047 13.4276 22.9481 12.8365C23.0916 12.2453 23.3956 11.7053 23.8265 11.276L26.8647 8.23763C26.1551 7.78259 25.5522 7.17968 25.0972 6.47013L22.0588 9.5083C21.6295 9.93924 21.0895 10.2432 20.4984 10.3867C19.9072 10.5301 19.2879 10.5075 18.7088 10.3213C17.3806 9.89486 15.9521 9.89486 14.6238 10.3213C14.0447 10.5075 13.4255 10.5301 12.8343 10.3867C12.2432 10.2432 11.7032 9.93924 11.2738 9.5083L9.29217 7.52663C9.95667 6.42977 10.163 5.11554 9.86667 3.8678C9.63896 2.91439 9.13859 2.04789 8.42665 1.3741C7.71471 0.700311 6.822 0.248376 5.8575 0.073468Z" fill="#0083FF"/>
</svg>
