<svg width="40" height="40" viewBox="0 0 40 40" fill="none" xmlns="http://www.w3.org/2000/svg">
<g clip-path="url(#clip0_1_51)">
<path d="M20 11.2305L24.3967 13.5422L23.5568 8.64624L27.1161 5.17761L22.1985 4.4635L20 0L17.8015 4.4635L12.8839 5.17761L16.4432 8.64624L15.6033 13.5422L20 11.2305Z" fill="#0083FF"/>
<path d="M34.8544 12.4319L32.6559 7.97699L30.4575 12.4319L25.5423 13.1461L29.0991 16.6138L28.2593 21.5106L32.6559 19.1989L37.0551 21.5106L36.2128 16.6138L40 13.1461L34.8544 12.4319Z" fill="#0083FF"/>
<path d="M3.78723 16.6138L2.94495 21.5106L7.34406 19.1989L11.7407 21.5106L10.9009 16.6138L14.4577 13.1461L9.54254 12.4319L7.34406 7.97699L5.14557 12.4319L0 13.1461L3.78723 16.6138Z" fill="#0083FF"/>
<path d="M25.8594 22.3438C25.8594 19.1132 23.2306 16.4844 20 16.4844C16.7694 16.4844 14.1406 19.1132 14.1406 22.3438C14.1406 25.5743 16.7694 28.2031 20 28.2031C23.2306 28.2031 25.8594 25.5743 25.8594 22.3438Z" fill="#0083FF"/>
<path d="M11.7969 36.4062V40H28.2031V36.4062C28.2031 31.8835 24.5227 28.2031 20 28.2031C15.4773 28.2031 11.7969 31.8835 11.7969 36.4062Z" fill="#0083FF"/>
<path d="M37.5781 38.75C37.5781 35.5194 34.9493 32.8906 31.7188 32.8906C31.1127 32.8906 30.5396 33.0096 29.9893 33.1812C30.321 34.2041 30.5469 35.2744 30.5469 36.4062V40H37.5781V38.75Z" fill="#0083FF"/>
<path d="M36.4062 28.2031C36.4062 25.618 34.3039 23.5156 31.7188 23.5156C29.1336 23.5156 27.0312 25.618 27.0312 28.2031C27.0312 28.3524 27.0615 28.4933 27.0752 28.6389C28.2309 29.6924 29.1629 30.9781 29.7617 32.4487C30.3592 32.7255 31.0181 32.8906 31.7188 32.8906C34.3039 32.8906 36.4062 30.7883 36.4062 28.2031Z" fill="#0083FF"/>
<path d="M12.9248 28.6389C12.9385 28.4933 12.9688 28.3524 12.9688 28.2031C12.9688 25.618 10.8664 23.5156 8.28125 23.5156C5.69611 23.5156 3.59375 25.618 3.59375 28.2031C3.59375 30.7883 5.69611 32.8906 8.28125 32.8906C8.98193 32.8906 9.64081 32.7255 10.2383 32.449C10.8371 30.9781 11.7691 29.6924 12.9248 28.6389Z" fill="#0083FF"/>
<path d="M2.42188 38.75V40H9.45312V36.4062C9.45312 35.2744 9.67896 34.2041 10.0107 33.1812C9.46045 33.0096 8.88733 32.8906 8.28125 32.8906C5.05066 32.8906 2.42188 35.5194 2.42188 38.75Z" fill="#0083FF"/>
</g>
<defs>
<clipPath id="clip0_1_51">
<rect width="40" height="40" fill="white"/>
</clipPath>
</defs>
</svg>
