<svg width="40" height="40" viewBox="0 0 40 40" fill="none" xmlns="http://www.w3.org/2000/svg">
<g clip-path="url(#clip0_1_63)">
<path d="M4.6875 17.6562C4.6875 17.0087 4.16321 16.4844 3.51562 16.4844H1.17187C0.524292 16.4844 0 17.0087 0 17.6562C0 18.3041 0.524292 18.8281 1.17187 18.8281H3.51562C4.16321 18.8281 4.6875 18.3041 4.6875 17.6562Z" fill="#0083FF"/>
<path d="M38.8281 16.4844H36.4844C35.8368 16.4844 35.3125 17.0087 35.3125 17.6562C35.3125 18.3041 35.8368 18.8281 36.4844 18.8281H38.8281C39.4757 18.8281 40 18.3041 40 17.6562C40 17.0087 39.4757 16.4844 38.8281 16.4844Z" fill="#0083FF"/>
<path d="M6.37817 8.43811L4.34784 7.26624C3.78723 6.94214 3.07068 7.1344 2.74689 7.69531C2.4231 8.25623 2.61536 8.97247 3.17596 9.29626L5.2063 10.4681C5.76324 10.7898 6.48071 10.6024 6.80725 10.0391C7.13104 9.47815 6.93878 8.7619 6.37817 8.43811Z" fill="#0083FF"/>
<path d="M36.824 26.0162L34.7937 24.8444C34.2319 24.5215 33.5156 24.7125 33.1927 25.2734C32.869 25.8344 33.0612 26.5506 33.6218 26.8744L35.6522 28.0463C36.2091 28.3679 36.9266 28.1805 37.2531 27.6172C37.5769 27.0563 37.3846 26.34 36.824 26.0162Z" fill="#0083FF"/>
<path d="M10.7819 3.78782C11.1081 4.35117 11.8259 4.53855 12.3828 4.2169C12.9437 3.8928 13.136 3.17655 12.8119 2.61595L11.64 0.585611C11.3162 0.0262244 10.5963 -0.166342 10.0391 0.156534C9.47815 0.480326 9.28589 1.19688 9.60999 1.75749L10.7819 3.78782Z" fill="#0083FF"/>
<path d="M5.2063 24.8444L3.17596 26.0162C2.61536 26.34 2.4231 27.0563 2.74689 27.6172C3.07342 28.1809 3.79089 28.3682 4.34784 28.0463L6.37817 26.8744C6.93878 26.5506 7.13104 25.8344 6.80725 25.2734C6.48224 24.7125 5.76233 24.5215 5.2063 24.8444Z" fill="#0083FF"/>
<path d="M34.7937 10.4681L36.824 9.29626C37.3846 8.97247 37.5769 8.25623 37.2531 7.69531C36.9281 7.1344 36.2082 6.94214 35.6522 7.26624L33.6218 8.43811C33.0612 8.7619 32.869 9.47815 33.1927 10.0391C33.5193 10.6027 34.2368 10.7901 34.7937 10.4681Z" fill="#0083FF"/>
<path d="M27.6172 4.21695C28.1741 4.5386 28.8919 4.35122 29.2181 3.78787L30.39 1.75753C30.7141 1.19693 30.5219 0.480373 29.9609 0.156582C29.4012 -0.165989 28.6838 0.0262718 28.36 0.585659L27.1881 2.61599C26.864 3.1766 27.0563 3.89315 27.6172 4.21695Z" fill="#0083FF"/>
<path d="M28.1265 7.64956C25.0995 5.18801 21.1331 4.24166 17.2385 5.05404C12.1793 6.10812 8.18756 10.2564 7.30622 15.3745C6.568 19.6613 7.98157 23.9951 11.0861 26.9696C12.7377 28.5498 13.7418 30.6644 14.0189 32.8906H18.8281V27.3862L14.4016 20.7462L12.1402 18.4848C11.6824 18.0271 11.6824 17.2855 12.1402 16.8277C12.598 16.37 13.3395 16.37 13.7973 16.8277L15.3125 18.3429L16.8277 16.8277C17.2855 16.37 18.027 16.37 18.4848 16.8277L20 18.3429L21.5152 16.8277C21.973 16.37 22.7145 16.37 23.1723 16.8277L24.6875 18.3429L26.2027 16.8277C26.6605 16.37 27.402 16.37 27.8598 16.8277C28.3176 17.2855 28.3176 18.0271 27.8598 18.4848L25.5984 20.7462L21.1719 27.3862V32.8906H25.914C26.0507 30.7852 27.0502 28.7232 28.8348 27.0438C31.412 24.6167 32.8906 21.1948 32.8906 17.6563C32.8906 13.7583 31.1545 10.1111 28.1265 7.64956Z" fill="#0083FF"/>
<path d="M22.3437 19.3134L20.8286 20.8286C20.3708 21.2863 19.6292 21.2863 19.1714 20.8286L17.6562 19.3134L16.8204 20.1492L20 24.9188L23.1796 20.1492L22.3437 19.3134Z" fill="#0083FF"/>
<path d="M14.1406 36.4844C14.1406 38.4229 15.7178 40 17.6562 40H22.3437C24.2822 40 25.8594 38.4229 25.8594 36.4844V35.2344H14.1406V36.4844Z" fill="#0083FF"/>
</g>
<defs>
<clipPath id="clip0_1_63">
<rect width="40" height="40" fill="white"/>
</clipPath>
</defs>
</svg>
