<svg width="33" height="40" viewBox="0 0 33 40" fill="none" xmlns="http://www.w3.org/2000/svg">
<path d="M32.2466 9.17996L17.1309 0.187383C16.7108 -0.0624609 16.1876 -0.0624609 15.7675 0.187383L0.651641 9.17996C0.247656 9.42035 0 9.85582 0 10.3259V15.4593C0 26.2713 6.24687 36.1464 15.9677 39.91C16.2772 40.0299 16.6208 40.03 16.9305 39.91C26.6278 36.1558 32.8982 26.3021 32.8982 15.4593V10.3259C32.8983 9.85574 32.6507 9.42035 32.2466 9.17996ZM23.0364 17.0039L14.6798 25.3606C14.1591 25.8813 13.3148 25.8813 12.7941 25.3606L9.86133 22.4279C9.34062 21.9072 9.34062 21.0629 9.86133 20.5422C10.382 20.0216 11.2263 20.0216 11.747 20.5422L13.7369 22.5321L21.1508 15.1182C21.6714 14.5976 22.5157 14.5976 23.0364 15.1182C23.5572 15.639 23.5572 16.4832 23.0364 17.0039Z" fill="#0083FF"/>
</svg>
